<svg xmlns="http://www.w3.org/2000/svg" viewBox="0 0 760 475.02"><g data-name="Man #3"><path d="M455.7 168.88c-1.34-3.55-1.52-7.79-3.78-10.41-.51-.36-.44-.3-1.42-.47-3.79 5.73-11.09 11-16.56 15.14l-4.73 5.2c-10.12 7.67-18.22 17.42-28.38 25.08l-4.73 5.2c-5.83 4.39-10.37 10.39-16.11 14.67-8.25 6.23-15 14-22.7 20.81-7.22 6.42-14.55 12.51-21.76 18.93-6.27 5.58-11.78 12.9-18.92 17.5 1.22 3.44 4.62 5.38 6.62 8.05 3.8 5.07 11.21 16.11 16.08 19.39l.47.48c2.86-4.22 10-9.14 14.19-12.3l7.1-7.1c8.64-6.52 16-14.29 24.6-20.82 5.23-4 9.44-9.77 14.66-13.72 15.49-11.7 28.5-26.14 44-37.85 7.62-5.76 13.61-14.16 21.76-19.39-1.44-8.67-7.32-20.26-10.39-28.39z" fill="#121214"/><path fill="#fff" d="M465.31 196.07L339.56 306.71l-21.31-25.63 134.39-122.83-1.68-1.85-136.15 124.44 24.48 29.45 127.67-112.34-1.65-1.88z" data-name="Составная фигура"/><path fill="#121214" d="M448.44 362.54h54.87V464.3h-54.87z" data-name="Составная фигура"/><path d="M447.19 361.29v104.26h57.37V361.29zm54.86 101.72h-52.36v-99.22h52.36z" fill="#fff" data-name="Составная фигура"/><path d="M447.13 361.29v42.31a1.25 1.25 0 1 0 2.5 0v-39.81h107.93l-.14 1.4v.12c0 9.52-2.39 17.32-7.11 23.19a1.252 1.252 0 0 0 1.95 1.57c5.07-6.31 7.65-14.62 7.66-24.7l.41-4.08z" fill="#fff" data-name="Составная фигура"/><path d="M568.28 187.01c0-26.88-24.71-38.06-43.29-37.4h-53.84a29.68 29.68 0 0 0-29.68 29.69v200.53H561.1l7.36-187z" fill="#121214" data-name="Составная фигура"/><path d="M569.53 187.01c0-10.43-3.74-19.55-10.8-26.37-9.91-9.63-23.94-12.63-33.74-12.31h-53.83a31 31 0 0 0-30.94 30.94v201.81h122.09l7.4-188.25zm-9.63 191.62H442.72V179.27a28.47 28.47 0 0 1 28.44-28.44h53.83c9.32-.33 22.61 2.53 32 11.56 6.66 6.43 10 14.7 10 24.59l.18 5.84z" fill="#fff" data-name="Составная фигура"/><path fill="#121214" d="M475.37 151.18v86.11l43.45-83.07-43.45-3.04z" data-name="Составная фигура"/><path d="M476.44 132.01v29.85a2.61 2.61 0 0 0 2.61 2.61h21.94a20.7 20.7 0 0 0 20.64-19c0-.56.07-1.12.07-1.68v-18.62z" fill="#121214" data-name="Составная фигура"/><path d="M475.19 131.01v30.92a3.86 3.86 0 0 0 3.86 3.86h21.94a22.06 22.06 0 0 0 21.89-20.18c0-.6.07-1.18.07-1.78v-20.12zm45.21 12.82c0 .53 0 1-.07 1.58a19.54 19.54 0 0 1-19.34 17.83h-21.94a1.36 1.36 0 0 1-1.36-1.36v-28.77l42.71-6.48z" fill="#5b141a" fill-rule="evenodd" data-name="Составная фигура"/><path d="M475.1 131.01v29.84a5 5 0 0 0 4.95 4.94h20.81a22.05 22.05 0 0 0 21.88-20.18c0-.6.08-1.18.08-1.78v-20.12zm45.22 12.82c0 .53 0 1-.07 1.58a19.54 19.54 0 0 1-19.39 17.88h-20.81a2.45 2.45 0 0 1-2.45-2.44v-27.74l42.72-6.48z" fill="#fff" fill-rule="evenodd" data-name="Составная фигура"/><path d="M512.31 46.69a10.75 10.75 0 0 1 .33 1.18l.49 2.25 6.39 29.55a6.14 6.14 0 0 0 11.47 1.46l10.13-8.5V46.69z" fill="#5b141a" fill-rule="evenodd" data-name="Составная фигура"/><path d="M510.58 45.44l.55 1.64c.11.34.21.71.29 1.06l6.88 31.79a7.3 7.3 0 0 0 6.28 5.77 6.46 6.46 0 0 0 1 .07 7.31 7.31 0 0 0 6.41-3.83l10.4-8.73V45.44zm29.3 26.57l-9.89 8.33-.12.23a4.88 4.88 0 0 1-9.14-1.17l-6.74-31.46h25.94z" fill="#5b141a" fill-rule="evenodd" data-name="Составная фигура"/><path d="M532.8 72.84c-2 1.83-5.08 2.44-6.62 4.73-1.13 1.67-1.09 4.2-2.37 5.68.9 4.54 4.87 8.72 7.1 12.3 20.58 5.64 24.66-23.54 1.89-22.71z" fill="#121214" fill-rule="evenodd" data-name="new_vector_shape_done"/><path d="M536.25 71.37a13.27 13.27 0 0 0-13.26 13.26 1.25 1.25 0 0 0 2.5 0 10.74 10.74 0 1 1 5.42 9.34 1.25 1.25 0 0 0-1.24 2.17 13.25 13.25 0 1 0 6.56-24.77z" fill="#fff" fill-rule="evenodd" data-name="Составная фигура"/><path d="M536.25 78.49a1.25 1.25 0 0 0 0 2.5 3.63 3.63 0 0 1 3.63 3.64 1.26 1.26 0 0 0 2.51 0 6.14 6.14 0 0 0-6.14-6.14z" fill="#fff" fill-rule="evenodd" data-name="Составная фигура"/><path d="M531.38 35.94a28.39 28.39 0 0 0-11.82-9.47c-5.37-2-13.22-1.41-20.34-1.41h-36.9c-1.85 1.13-5 .64-7.09 1.41a27.83 27.83 0 0 0-13.72 12.31c-4.33 8.38-2.36 25.34-2.36 37.37 0 9-1.59 22.44.47 30.28 6.05 23 19.71 32.7 49.19 32.64 6 0 11.56-.85 16.08-2.83 16.28-7.15 25.63-19.38 30.28-38.33V68.58c0-12.1 1.12-25.49-3.79-32.64z" fill="#121214" fill-rule="evenodd" data-name="new_vector_shape_done"/><path d="M536.54 57.51v-7.67a25.88 25.88 0 0 0-25.89-25.83H463.9a25.92 25.92 0 0 0-25.91 25.84v49.16a41.49 41.49 0 0 0 41.44 41.45h7.81a49.27 49.27 0 0 0 49.27-49.28V57.66c.04-.05.03-.1.03-.15zm-2.5 33.62a46.77 46.77 0 0 1-46.77 46.78h-7.81a39 39 0 0 1-38.94-38.9V49.85a23.41 23.41 0 0 1 23.38-23.39h46.75a23.39 23.39 0 0 1 23.39 23.38v41.29z" fill="#fff" fill-rule="evenodd" data-name="Составная фигура"/><path d="M465.72 102.47a6 6 0 0 1-6-6V80.19a1.26 1.26 0 1 0-2.51 0v16.28a8.51 8.51 0 0 0 8.51 8.5 1.25 1.25 0 0 0 0-2.5z" fill="#fff" fill-rule="evenodd" data-name="Составная фигура"/><path d="M498.99 1.25c-.1 0-.2 0 .29.06l-68.09-.06v18c0 17 9.67 30.83 26.71 30.83h9.55a54.85 54.85 0 0 0 29.42-8.55l.28-.18a10.2 10.2 0 0 1 15.45 6.49l.48 2.24 6.4 29.56a6.14 6.14 0 0 0 11.51 1.5l10.14-8.51V43.4a42.15 42.15 0 0 0-42.14-42.15z" fill="#121214" fill-rule="evenodd" data-name="Составная фигура"/><path d="M498.99.01h-1.28v.05L429.99.01v19.28c.05 19.19 11.28 32.08 28 32.08h9.55a56 56 0 0 0 30.09-8.75l.28-.17a9 9 0 0 1 13.56 5.69l6.87 31.81a7.31 7.31 0 0 0 6.29 5.76 6.42 6.42 0 0 0 1 .07 7.29 7.29 0 0 0 6.36-3.84l10.4-8.73V43.4A43.45 43.45 0 0 0 498.99.01zm40.89 72l-9.89 8.33-.11.23a4.89 4.89 0 0 1-9.14-1.16l-6.4-29.56-.48-2.24a11.33 11.33 0 0 0-6.77-8.18 11.48 11.48 0 0 0-4.46-.91 11.31 11.31 0 0 0-6.11 1.81l-.28.17a53.53 53.53 0 0 1-28.75 8.36h-9.5c-17.54 0-25.42-14.86-25.46-29.59V2.5l66.84.06V2.5a40.94 40.94 0 0 1 40.6 40.9z" fill="#fff" fill-rule="evenodd" data-name="Составная фигура"/><path fill="#fff" d="M474.12 175.03h2.5v204.91h-2.5z" data-name="Составная фигура"/><path d="M531.85 150.9c-.31-.47-.63-.94-.94-1.42h-9.46c-.62.43-2.3 5.14-2.84 6.15-2.7 5.1-5.16 10.33-8 15.62-7.1 13-14.65 26.7-21.76 39.74-3.32 6.08-6.3 12.18-9.46 18-1.27 2.34-1.65 4.76-3.31 6.63v.94c5.24-1.76 9.9-6.86 14.19-9.93 5.45-3.91 11.05-7 16.55-10.88 4.05-2.84 7.93-6.45 12.3-9-.05-3.73-.94-15.75.48-18 2.25-1.72 8.22-3 11.35-3.31l1.42-24.6c-.03-3.64.85-8.12-.52-9.94z" fill="#121214" fill-rule="evenodd" data-name="new_vector_shape_done"/><path d="M532.14 149.91a4 4 0 0 0-3-1.35h-8.31l-47.13 92.71 46.29-33.71V189.7l11.61-3.36 1.66-33.22a4.37 4.37 0 0 0-1.12-3.21zm-2.83 34.51l-11.7 3.38v18.46l-37.16 27 41.81-82.25h6.85a1.75 1.75 0 0 1 1.29.58 1.87 1.87 0 0 1 .48 1.36z" fill="#fff" fill-rule="evenodd" data-name="Составная фигура"/><path fill="#121214" fill-rule="evenodd" d="M468.64 150.94l-8.3 27.63 4.79 7.36-3.46 15.94 13.7 34.25v-88.88l-6.73 3.7z" data-name="Составная фигура"/><path d="M467.59 150.09l-8.6 28.67 4.83 7.41-3.45 15.84 16.25 40.64v-97.53zm6.53 79.53l-11.13-27.87 3.48-16.07-4.76-7.31 8-26.58 4.43-2.44z" fill="#fff" fill-rule="evenodd" data-name="Составная фигура"/><path d="M520.75 140.01l-33.47 19.39.09 28 36.35-37v-7.39a3 3 0 0 0-2.97-3z" fill="#121214" fill-rule="evenodd" data-name="Составная фигура"/><path d="M520.77 139.01h-.34l-34.44 19.65.1 31.35 38.9-39v-7.85a4.21 4.21 0 0 0-4.22-4.15zm1.72 11l-33.9 34-.08-23.92 32.55-18.57a1.69 1.69 0 0 1 1.43 1.67z" fill="#fff" fill-rule="evenodd" data-name="Составная фигура"/><path d="M476.51 141.91c-6.47.67-5.21 4.93-6.62 10.88-.47 2-1.77 5.84-.95 9 .87 3.31 2.73 7.16 3.79 10.41.88 2.71.83 5.95 2.36 8l.48.48c2.2-11.31 1.02-26 .94-38.77z" fill="#121214" fill-rule="evenodd" data-name="new_vector_shape_done"/><path d="M476.64 140.87a7.66 7.66 0 0 0-7.56 6.61l-1.72 12.58 9.34 29.62 1.19-29.29v-19.52zm-1.86 34.41l-4.86-15.44 1.64-12a5.14 5.14 0 0 1 3.83-4.29v16.81z" fill="#fff" fill-rule="evenodd" data-name="Составная фигура"/><rect x="474.44" y="159.41" width="12.93" height="15.58" rx="2.55" ry="2.55" fill="#00ffc4" data-name="Составная фигура"/><path d="M485.31 158.01h-7.62a3.85 3.85 0 0 0-3.69 4v11a3.85 3.85 0 0 0 3.69 4h7.62a3.86 3.86 0 0 0 3.69-4v-11a3.86 3.86 0 0 0-3.69-4zm1.26 15a1.32 1.32 0 0 1-1.26 1.37h-7.62a1.31 1.31 0 0 1-1.26-1.37v-11a1.31 1.31 0 0 1 1.26-1.36h7.62a1.32 1.32 0 0 1 1.26 1.36z" fill="#121214" fill-rule="evenodd" data-name="Составная фигура"/><path fill="#00ffc4" fill-rule="evenodd" d="M486.45 175.08l-11.46-.07v61.01l13.01-23.4-1.55-37.54z" data-name="Составная фигура"/><path d="M489.22 174.09l-15.23-.08v69l17-28.72zm-12.49 59v-56.51l9.86.06 1.62 37z" fill="#121214" data-name="Составная фигура"/><path d="M456.62 112.55v1.26a11.23 11.23 0 1 0 22.46 0v-1.26zm11.23 10a8.75 8.75 0 0 1-8.64-7.48h17.28a8.75 8.75 0 0 1-8.64 7.47z" fill="#fff" data-name="Составная фигура"/><path d="M554.31 159.34a18 18 0 0 0-20.11 15.67c-5.81 46.88-27.13 84.6-63.38 112.1-27.49 20.9-53.83 27.95-54.56 28.14a18.047 18.047 0 1 0 8.82 35c1.33-.33 32.83-8.43 66.23-33.37 31-23.14 69.81-65.77 78.68-137.4a18 18 0 0 0-15.68-20.14z" fill="#121214" data-name="Составная фигура"/><path d="M554.46 158.1a19.28 19.28 0 0 0-21.47 16.78c-5.76 46.53-26.92 84-62.88 111.25-27.29 20.68-53.12 27.62-54.12 27.88a19.291 19.291 0 1 0 9.44 37.41c1.33-.33 33.08-8.5 66.67-33.58 31.19-23.29 70.25-66.18 79.17-138.24a19.31 19.31 0 0 0-16.81-21.5zm14.29 21.21c-8.81 71.19-47.38 113.55-78.19 136.55-33.19 24.78-64.47 32.83-65.78 33.16a17.29 17.29 0 0 1-4.1.5 16.79 16.79 0 0 1-4.1-33.06c1.1-.29 27.36-7.36 55-28.33 36.52-27.72 58-65.72 63.86-113a16.783 16.783 0 1 1 33.31 4.13z" fill="#fff" data-name="Составная фигура"/><path fill="#121214" d="M433.73 308.85l-44.02 15.46 23.59 30.46 35.14-12.97-14.71-32.95z" data-name="Составная фигура"/><path d="M434.4 307.28l-46.74 16.42 25.21 32.56 37.25-13.76zm-42.64 17.63l41.29-14.51 13.7 30.68-33 12.2z" fill="#fff" data-name="Составная фигура"/></g><path fill="#bc8975" d="M502.54 385.77v22.2l10.4 5.32 39.54-14.57 10.39-15.65-60.33 2.7z" data-name="Составная фигура"/><path d="M538.67 384.01l-3.26-3.26a25.58 25.58 0 0 1-7.52-18.19 1.25 1.25 0 0 0-2.5 0 28.07 28.07 0 0 0 8.25 20l3.26 3.27a1.29 1.29 0 0 0 .89.37 1.26 1.26 0 0 0 .88-2.14zm19.71 5.24a1.25 1.25 0 0 0-1.25 1.25v72.51h-52.37V397.2a1.25 1.25 0 1 0-2.5 0v68.35h57.37V390.5a1.25 1.25 0 0 0-1.25-1.25z" fill="#5b141a" data-name="Составная фигура"/><path fill="#5b1a1d" d="M485.34 398.24h18.17v66.06h-18.17z" data-name="Составная фигура" opacity=".27"/><rect x="528.81" y="362.54" width="43.5" height="17.29" rx="4.48" ry="4.48" fill="#bc8975" data-name="Составная фигура"/><path d="M567.83 361.29h-34.55a5.73 5.73 0 0 0-5.72 5.72v8.34a5.73 5.73 0 0 0 5.72 5.73h34.55a5.74 5.74 0 0 0 5.73-5.73v-8.34a5.73 5.73 0 0 0-5.73-5.72zm3.23 14.06a3.23 3.23 0 0 1-3.23 3.23h-34.55a3.23 3.23 0 0 1-3.22-3.23v-8.34a3.22 3.22 0 0 1 3.22-3.22h34.55a3.23 3.23 0 0 1 3.23 3.22z" fill="#5b141a" data-name="Составная фигура"/><path d="M674.78 309.9h-144a18.75 18.75 0 0 0-18.75 18.76v131.92c0 1.31 1.06 3.72 2.37 3.72h176.76c1.31 0 2.38-2.41 2.38-3.72V328.66a18.76 18.76 0 0 0-18.76-18.76z" fill="#121214" data-name="Составная фигура"/><path d="M674.78 308.65h-144a20 20 0 0 0-20 20v131.93c0 1.75 1.37 5 3.62 5h176.76c2.25 0 3.63-3.22 3.63-5V328.66a20 20 0 0 0-20.01-20.01zm17.51 151.93a3.73 3.73 0 0 1-1.13 2.47H514.45a3.65 3.65 0 0 1-1.15-2.47V328.66a17.52 17.52 0 0 1 17.5-17.51h144a17.52 17.52 0 0 1 17.51 17.51z" fill="#fff" data-name="Составная фигура"/><path d="M657.51 309.9H530.77a18.76 18.76 0 0 0-18.78 18.76V464.3h164.27V328.66a18.75 18.75 0 0 0-18.75-18.76z" fill="#121214" data-name="Составная фигура"/><path d="M657.51 308.65H530.77a20 20 0 0 0-20 20v136.9h166.74V328.66a20 20 0 0 0-20-20.01zm17.48 154.36H513.26V328.66a17.53 17.53 0 0 1 17.51-17.51h126.74a17.52 17.52 0 0 1 17.48 17.51z" fill="#fff" data-name="Составная фигура"/><path fill="#e08c3c" d="M512.05 450.5H676.3v13.8H512.05z" data-name="Составная фигура"/><path d="M510.8 449.25v16.3h166.75v-16.3zm164.25 13.76H513.3v-11.3h161.75z" fill="#5b141a" data-name="Составная фигура"/><path d="M510.8 373.01v26.8h166.75v-26.8zm164.25 24.3H513.3v-21.8h161.75z" fill="#fff" data-name="Составная фигура"/><path d="M643.43 253.47l-7.63-40.22-21.33-20.64c-7.45-26.81-12.94-52-40.94-52a50.71 50.71 0 0 0-50.68 49 7.61 7.61 0 0 0 .66 3.32l39 85.56 18.3 43.75c38.01-.04 71.41-31.75 62.62-68.77z" fill="#121214" data-name="Составная фигура"/><path d="M644.66 253.23l-7.7-40.6-21.38-20.68-1-3.61c-6.93-25.21-13.48-49-41.06-49a51.74 51.74 0 0 0-51.93 50.19 9 9 0 0 0 .77 3.89l39 85.54 18.63 44.49h.83c21.08 0 41.1-9.42 53.57-25.2 10.37-13.19 14.03-29.19 10.27-45.02zm-12.28 43.46c-11.83 15-30.76 24-50.77 24.25l-18-43-39-85.57a6.57 6.57 0 0 1-.55-2.78 49.25 49.25 0 0 1 49.43-47.78c25.67 0 31.68 21.86 38.65 47.17l1.08 3.95.09.32 21.3 20.61 7.56 39.88c3.63 15.13.14 30.38-9.79 42.95z" fill="#fff" data-name="Составная фигура"/><path d="M546.67 294.66a15.3 15.3 0 0 0-15.53 15c-.09 4.42-3.64 108.23-121.36 108.23a15.27 15.27 0 0 0 0 30.53c77 0 114.38-37.74 132.17-69.4 19-33.79 19.69-67.44 19.71-68.86a15.24 15.24 0 0 0-14.99-15.5z" fill="#121214" data-name="Составная фигура"/><path d="M546.7 293.41a16.54 16.54 0 0 0-16.81 16.19c-.09 4.37-3.62 107-120.11 107a16.52 16.52 0 0 0 0 33c77.62 0 115.31-38.08 133.26-70 19.12-34 19.85-68 19.87-69.46a16.53 16.53 0 0 0-16.21-16.73zm-5.84 85c-17.62 31.37-54.67 68.76-131.08 68.76a14 14 0 0 1 0-28c118.91 0 122.52-105 122.61-109.45a14 14 0 0 1 4.32-9.83 13.82 13.82 0 0 1 9.64-3.91h.3a14 14 0 0 1 13.76 14.19c-.02 1.34-.73 34.7-19.55 68.2z" fill="#fff" data-name="Составная фигура"/><path d="M616.35 286.01h-56.21a34.1 34.1 0 0 0-34.09 34.1v44.44l5.25 6.82v92.91h119.13V320.13a34.09 34.09 0 0 0-34.08-34.12z" fill="#121214" fill-rule="evenodd" data-name="Составная фигура"/><path d="M616.35 284.78h-56.21a35.38 35.38 0 0 0-35.34 35.35v44.88l5.25 6.82v93.74h121.64V320.13a35.39 35.39 0 0 0-35.34-35.35zm32.83 178.23H532.55v-92l-5.25-6.82v-44a32.88 32.88 0 0 1 32.84-32.85h56.21a32.88 32.88 0 0 1 32.83 32.85z" fill="#fff" fill-rule="evenodd" data-name="Составная фигура"/><path d="M627.87 347.24a47.13 47.13 0 0 0-4.73-10.41c-9.58-1.91-21.26-.75-30.74-2.84h-7.57c-5.06-1.1-12.44-.78-17.5-1.89h-7.57c-3.51-.76-8 0-12.3-.94a103.1 103.1 0 0 0-22.23-1.9c-1.12 2.28-3.77 3.27-5.2 5.21a37.57 37.57 0 0 0-5.68 11.82c-2.35 8.63 1.71 18.45 5.21 23.19 9.6 13 27.42 10.88 49.66 10.88h35.48c9.35-2.74 14.83-7.07 19.39-14.67 2.15-3.59 5.9-11.18 3.78-18.45z" fill="#121214" fill-rule="evenodd" data-name="new_vector_shape_done"/><path d="M624.12 335.94a1.25 1.25 0 1 0-2.07 1.4 26.72 26.72 0 0 1-22.15 41.67h-57.91a26.72 26.72 0 0 1-15.23-48.67 1.25 1.25 0 1 0-1.43-2.05 29.22 29.22 0 0 0 16.66 53.2h57.91a29.22 29.22 0 0 0 24.22-45.55z" fill="#fff" fill-rule="evenodd" data-name="Составная фигура"/><path d="M562.47 268.55v21.36c0 8 5.21 14.41 11.65 14.41h10.18c9.68 0 17.62-9.23 18.38-21q.06-.91.06-1.86v-23.89z" fill="#121214" fill-rule="evenodd" data-name="Составная фигура"/><path d="M561.22 267.6v22.31c0 8.64 5.79 15.67 12.9 15.67h10.17c10.21 0 18.84-9.73 19.64-22.15 0-.65.06-1.28.06-1.94v-25.56zm40.27 13.89c0 .6 0 1.19-.06 1.78-.72 11.1-8.24 19.8-17.14 19.8h-10.17c-5.73 0-10.4-5.9-10.4-13.16v-20.4l37.77-10.31z" fill="#fff" fill-rule="evenodd" data-name="Составная фигура"/><path d="M650.58 373.26v-48.73c-10.58.33-20.21 3.67-30.27 4.73l-.48.48v43.52c0 6.75 1.16 15.37-.47 21.29a33.12 33.12 0 0 1-17 20.82c-5.7 2.82-14.23 2.36-22.7 2.36h-58.21c-3.7 1-9.69 4.75-11.83 7.57-1.09 1.44-1.44 3.15-2.84 4.26-.34 7.27 1 12.7 5.68 16.09 5.6 4 17.4 2.84 27 2.84 22.77 0 55.22 3 71.9-3.79 19.9-8.08 32.31-23.32 38.31-45.42 1.93-7.27.91-17.37.91-26.02z" fill="#121214" fill-rule="evenodd" data-name="new_vector_shape_done"/><path d="M650.44 323.01a1.25 1.25 0 0 0-1.26 1.25v63.19a59.69 59.69 0 0 1-59.62 59.64H521.7a14 14 0 0 1-14-14c0-7.45 12.06-13.44 14.16-14h67.71a31.64 31.64 0 0 0 31.6-31.61v-58.2a1.25 1.25 0 0 0-2.5 0v58.2a29.14 29.14 0 0 1-29.1 29.11h-68.14a30.79 30.79 0 0 0-8.9 4.87c-4.81 3.65-7.35 7.67-7.35 11.62a16.54 16.54 0 0 0 16.52 16.51h67.86a62.2 62.2 0 0 0 62.13-62.14V324.3a1.25 1.25 0 0 0-1.25-1.29z" fill="#fff" fill-rule="evenodd" data-name="Составная фигура"/><path d="M607.06 179.29c-3.32-4.73-9.45-8.07-15.61-9.94H539.9c-2 1.67-5.72 1.57-8 2.84-5.53 3-9.83 9.55-11.82 16.09v50.15c5.55 20.92 15.49 32.18 36.42 37.85 7 1.9 17.42 1.51 24.12-.95 16.33-6 25.95-18.71 30.28-36.9v-27.42c-.05-11.86 1.03-24.8-3.84-31.72z" fill="#121214" fill-rule="evenodd" data-name="new_vector_shape_done"/><path d="M612.25 199.91v-7.27a24.58 24.58 0 0 0-24.58-24.58H543.4a24.61 24.61 0 0 0-24.57 24.59v39.1a46.71 46.71 0 1 0 93.42 0v-31.74a.57.57 0 0 0 0-.1zm-2.5 31.84a44.21 44.21 0 1 1-88.42 0v-39.1a22.1 22.1 0 0 1 22.07-22.08h44.27a22.09 22.09 0 0 1 22.08 22.08v11.24a.49.49 0 0 0 0 .12z" fill="#fff" fill-rule="evenodd" data-name="Составная фигура"/><path d="M549.9 250.73h-6.29c-2 0-2.39 2.79-5.41 2.53a20 20 0 0 1 1.39 2 6.73 6.73 0 0 0 2.68 2.48 11.42 11.42 0 0 0 9.63-.09 6.89 6.89 0 0 0 2.45-2.17l1.8-2.54c-3.41.07-4.38-2.21-6.25-2.21z" fill="#00ffc4" fill-rule="evenodd" data-name="Составная фигура"/><path d="M556.15 251.72a5.7 5.7 0 0 1-3.42-1.17 5.06 5.06 0 0 0-2.83-1.07h-6.29a4.08 4.08 0 0 0-2.89 1.45 2.76 2.76 0 0 1-2.41 1.08l-3.74-.37 2.74 2.5a21.28 21.28 0 0 1 1.23 1.82 7.86 7.86 0 0 0 3.2 2.94 12.67 12.67 0 0 0 10.72-.1 8.12 8.12 0 0 0 2.91-2.56l3.21-4.52zm-2.82 3.07a5.68 5.68 0 0 1-2 1.78 10.22 10.22 0 0 1-8.52.07 5.34 5.34 0 0 1-2.16-2l-.28-.42a6.47 6.47 0 0 0 2.06-1.44c.58-.55.85-.77 1.18-.77h6.29a3 3 0 0 1 1.48.67 9.61 9.61 0 0 0 2.61 1.23z" fill="#00ffc4" fill-rule="evenodd" data-name="Составная фигура"/><path d="M559.59 251.1a1.26 1.26 0 0 0-1.76 0s-2.89 2.64-10.45 2.64-11-2.66-11.09-2.71a1.25 1.25 0 0 0-1.75.16 1.26 1.26 0 0 0 .15 1.77c.16.13 4 3.29 12.69 3.29s12.06-3.23 12.2-3.36a1.25 1.25 0 0 0 .01-1.79z" fill="#00ffc4" fill-rule="evenodd" data-name="Составная фигура"/><path d="M599.27 390.01h-39.14a3.44 3.44 0 0 0-3.44 3.44v4.69a3.44 3.44 0 0 0 3.44 3.43h39.14a3.44 3.44 0 0 0 3.43-3.43v-4.69a3.44 3.44 0 0 0-3.43-3.44zm.93 8.13a.93.93 0 0 1-.93.93h-39.14a.92.92 0 0 1-.93-.93v-4.69a.92.92 0 0 1 .93-.93h39.14a.93.93 0 0 1 .93.93z" fill="#fff" fill-rule="evenodd" data-name="Составная фигура"/><path d="M561.11 400.29l3.51 45.88a2.79 2.79 0 0 0 2.78 2.57h24.47a2.79 2.79 0 0 0 2.78-2.55l3.63-45.9z" fill="#121214" fill-rule="evenodd" data-name="Составная фигура"/><path d="M592.15 383.95l-23.63-2.85a5.32 5.32 0 0 0-6 5.28v6.11h34.27v-3.26a5.32 5.32 0 0 0-4.64-5.28zm2.18 6h-29.27v-3.6a2.82 2.82 0 0 1 3.16-2.8l23.63 2.85a2.82 2.82 0 0 1 2.48 2.8zm-34.57 9.06l3.62 47.23a4 4 0 0 0 4 3.72h24.47a4 4 0 0 0 4-3.71l3.78-47.24zm33.64 47a1.54 1.54 0 0 1-1.53 1.41H567.4a1.54 1.54 0 0 1-1.53-1.41l-3.41-44.54h34.47z" fill="#fff" fill-rule="evenodd" data-name="Составная фигура"/><path d="M635.44 212.41c-1.79-7-2.15-14-3.78-20.35-2.25-8.78-2.11-17-5.68-24.13-10.73-21.55-29.91-32.06-62.91-31.69-1.67 1.06-3.82.31-6.15.94a98 98 0 0 0-14.19 4.73c-11.94 5.45-22.61 16.8-27.43 29.34-2.2 5.71-1.71 12.64-3.79 18.92 22.56 14.81 56.49 5.33 87 5.2a8.07 8.07 0 0 0 1.89 1.42v20.35c0 2.39-.51 6.47.47 8 1 .59 7.13-.35 9.46-.95 5.63-1.44 12.85-2.37 18.45-3.78 3.14-.79 5.8.05 8-1.42.56-1.17-.89-4.82-1.34-6.58z" fill="#121214" fill-rule="evenodd" data-name="new_vector_shape_done"/><path d="M631.28 181.92c-5.26-28.57-28.92-47-60.26-47-39.13 0-60.25 28.79-60.25 55.89v.61l.48.38c14.49 11.33 45.45 8.3 68.06 6.1 7.33-.72 13.66-1.34 18.26-1.36a1.74 1.74 0 0 1 1.22.5 1.79 1.79 0 0 1 .52 1.23v27.34h2.51v-27.34a4.25 4.25 0 0 0-4.24-4.23c-4.71 0-11.1.64-18.5 1.37-21.93 2.14-51.87 5.06-65.78-5.22.35-34.28 29.91-52.77 57.74-52.77 30.08 0 52.77 17.66 57.8 45l7 37.17 2.46-.46z" fill="#fff" fill-rule="evenodd" data-name="Составная фигура"/><path d="M610.85 215.24a5 5 0 0 1-2.84.48c-1.65 1.58-4.39 2.35-5.68 4.26-.92 1.35-.7 2.75-1.89 3.78.11 6 3.82 9.23 6.15 13.25 6.77 1.78 12.5 1.09 15.61-4.73 4.88-9.16-3.21-16.98-11.35-17.04z" fill="#121214" fill-rule="evenodd" data-name="new_vector_shape_done"/><path d="M611.92 214.13a12.63 12.63 0 0 0-12.62 12.61 1.26 1.26 0 0 0 2.51 0 10.11 10.11 0 1 1 5.1 8.79 1.254 1.254 0 1 0-1.24 2.18 12.62 12.62 0 1 0 6.25-23.58z" fill="#fff" fill-rule="evenodd" data-name="Составная фигура"/><path d="M611.92 220.87a1.25 1.25 0 0 0 0 2.5 3.37 3.37 0 0 1 3.37 3.37 1.25 1.25 0 1 0 2.5 0 5.87 5.87 0 0 0-5.87-5.87z" fill="#fff" fill-rule="evenodd" data-name="Составная фигура"/><path d="M605.61 234.01a3 3 0 1 0 3 3 3 3 0 0 0-3-3z" fill="#00ffc4" fill-rule="evenodd" data-name="Составная фигура"/><path d="M519.61 418.3l-37.25 8a22.57 22.57 0 0 0-17.83 22.07h57.17v-28.36a1.73 1.73 0 0 0-2.09-1.71z" fill="#121214" fill-rule="evenodd" data-name="Составная фигура"/><path d="M521.84 417.67a3 3 0 0 0-2.49-.59l-37.25 8a24 24 0 0 0-18.82 23.3v1.25h59.71v-29.62a3 3 0 0 0-1.15-2.34zm-1.4 29.46h-54.62a21.45 21.45 0 0 1 16.81-19.6l37.25-8a.43.43 0 0 1 .39.09.44.44 0 0 1 .17.36z" fill="#fff" fill-rule="evenodd" data-name="Составная фигура"/><path d="M591.11 301.01c-16.41 6.87-26.1 1.14-28.32-8.22l-.25-1.33 5.24 28.39c1 5.43 6.45 7.33 9.6 3.36l19.47-24.58z" fill="#121214" fill-rule="evenodd" data-name="Составная фигура"/><path d="M590.63 299.88c-8.12 3.4-15 3.86-20 1.32a12.55 12.55 0 0 1-6.57-8.61l-.25-1.33-2.46.46 5.24 28.39a7.63 7.63 0 0 0 5.36 6.32 5.92 5.92 0 0 0 1.44.18 6.43 6.43 0 0 0 5-2.59l22.46-28.36zm-14.23 22.58a3.75 3.75 0 0 1-3.89 1.54 5.17 5.17 0 0 1-3.5-4.34l-3.54-19.2a14.68 14.68 0 0 0 4 3c3.95 2 11 3.43 22.13-1.24l1.29-.53z" fill="#fff" fill-rule="evenodd" data-name="Составная фигура"/><path d="M601.84 282.16s-9.81 19.71-30.14 21.36l12.73 15.15a1.39 1.39 0 0 0 2.38-.3l18-32.47c1.32-2.44-.99-5.32-2.97-3.74z" fill="#121214" fill-rule="evenodd" data-name="Составная фигура"/><path d="M604.99 281.2a3 3 0 0 0-3.95 0l-.21.17-.13.24c-.09.2-9.76 19.1-29.12 20.67l-2.41.2 14.28 17a2.66 2.66 0 0 0 2 1h.24a2.79 2.79 0 0 0 2.15-1.47l18.15-32.53a4.33 4.33 0 0 0-1-5.28zm-1.25 4.09l-18 32.47c-.09.16-.17.2-.2.2a.28.28 0 0 1-.13-.1l-11.24-13.37c18.1-2.72 27.33-19 28.66-21.47a.52.52 0 0 1 .61.11 1.79 1.79 0 0 1 .32 2.16z" fill="#fff" fill-rule="evenodd" data-name="Составная фигура"/><path d="M569.55 302.35c-4-2.15-6.62-6.89-6.84-12.24l-.24-6 .07 33.69c0 .26.27.37.39.16l8.77-14.42z" fill="#121214" fill-rule="evenodd" data-name="Составная фигура"/><path d="M570.14 301.25c-3.55-1.93-6-6.32-6.18-11.2l-.24-6-2.5.05.07 33.69a1.53 1.53 0 0 0 1.08 1.47 1.74 1.74 0 0 0 .39.05 1.45 1.45 0 0 0 1.24-.71l9.45-15.59zm-6.36 12.88v-15.87a13.5 13.5 0 0 0 5.2 5.19l1 .54zm-17.03-77.12a5.62 5.62 0 0 1-5.61-5.61v-9.9a1.25 1.25 0 0 0-2.5 0v9.9a8.13 8.13 0 0 0 8.11 8.12 1.26 1.26 0 0 0 0-2.51z" fill="#fff" fill-rule="evenodd" data-name="Составная фигура"/><g data-name="Man #2"><path d="M358.91 309.31H226.42a20 20 0 0 0-20 20v145.7h172.49V329.32a20 20 0 0 0-20-20.01zm17.5 163.2H208.92V329.32a17.52 17.52 0 0 1 17.5-17.5h132.49a17.52 17.52 0 0 1 17.5 17.5z" fill="#fff" fill-rule="evenodd" data-name="Составная фигура"/><path d="M329.85 276.4h-55.63c-18.63 0-33.74 15.8-33.74 35.29V464.3h123.11V311.69c0-19.49-15.11-35.29-33.74-35.29z" fill="#121214" fill-rule="evenodd" data-name="Составная фигура"/><path d="M330.8 275.15h-55.63c-19.3 0-35 16.39-35 36.54v153.86h125.62V311.69c0-20.15-15.7-36.54-34.99-36.54zm32.48 187.86h-120.6V311.69c0-18.77 14.57-34 32.49-34h55.63c17.91 0 32.48 15.26 32.48 34z" fill="#fff" fill-rule="evenodd" data-name="Составная фигура"/><path d="M375.76 413.01h-59.12l-18.45-.47c-26.63-7.43-25.54-26.21-25.54-59.61 0-9.83-1.25-21.8.47-30.75-.31-.32-.63-.63-.95-1-2.44-1.61-6.21-.63-9.46-1.42-6.46-1.56-14.66-3.63-21.75-3.78v36.9c0 12.73-1.84 28.62.94 39.74 7 27.75 23.39 44.11 51.09 51.09 11.34 2.87 29.85.95 43 .95h29.33c5.07 0 10.91.5 14.66-.95a18.79 18.79 0 0 0 8-6.62c1-1.65 1-3.93 2.37-5.2.2-10.25-7.24-16.35-14.59-18.88z" fill="#121214" fill-rule="evenodd" data-name="new_vector_shape_done"/><path d="M383.9 416.64a31.5 31.5 0 0 0-9.2-5h-70.5a30.2 30.2 0 0 1-30.16-30.17v-60.29a1.26 1.26 0 0 0-2.51 0v60.23a32.71 32.71 0 0 0 32.67 32.67h70.09c2.15.6 14.69 6.81 14.69 14.55a14.57 14.57 0 0 1-14.54 14.55H304.2a61.83 61.83 0 0 1-61.75-61.77v-65.4a1.25 1.25 0 0 0-2.5 0v65.4a64.33 64.33 0 0 0 64.25 64.27h70.24a17.07 17.07 0 0 0 17-17.05c.04-4.07-2.58-8.22-7.54-11.99z" fill="#fff" fill-rule="evenodd" data-name="Составная фигура"/><path d="M285.99 256.24v18c0 .55 0 1.09.07 1.63a20.08 20.08 0 0 0 20 18.46h9.55a14.41 14.41 0 0 0 13-7.74 11 11 0 0 0 1.26-4.94v-18.76z" fill="#121214" fill-rule="evenodd" data-name="Составная фигура"/><path d="M284.69 254.78v19.5c0 .59 0 1.16.07 1.73a21.43 21.43 0 0 0 21.23 19.61h9.55a15.72 15.72 0 0 0 14.07-8.43 12.21 12.21 0 0 0 1.39-5.5v-19.87zm43.85 26.9a9.8 9.8 0 0 1-1.13 4.38 13.19 13.19 0 0 1-11.83 7.05h-9.59a18.91 18.91 0 0 1-18.77-17.31c0-.51-.07-1-.07-1.53v-16.58l41.39 6.32z" fill="#5b141a" fill-rule="evenodd" data-name="Составная фигура"/><path d="M284.77 254.78v19.5c0 .59 0 1.16.07 1.73a21.44 21.44 0 0 0 21.27 19.61h10.88a14 14 0 0 0 14.11-13.72v-20.08zm43.85 26.9v.2a11.53 11.53 0 0 1-11.63 11.24h-10.9a18.91 18.91 0 0 1-18.77-17.31c-.05-.51-.07-1-.07-1.53v-16.59l41.37 6.32z" fill="#fff" fill-rule="evenodd" data-name="Составная фигура"/><path d="M359.21 207.67v-28.86c-5.64-23.49-19.27-40.9-47.78-41.16-1.45.9-4.07 0-6.15.48a80.26 80.26 0 0 0-10.4 2.84c-11.95 4.65-22 15.75-26.49 27.91-3.4 9.13-2.4 22.79-2.4 35.01 0 8.84-1.55 19.93.47 27.91 4.84 19.13 15 29.47 32.64 36 3.87 1.43 14.8 3.73 20.33 2.84 21.22-3.43 32.8-10.93 38.79-29.33 2.66-8.1.99-23.71.99-33.64z" fill="#121214" fill-rule="evenodd" data-name="new_vector_shape_done"/><path d="M312.38 137.19a47.71 47.71 0 0 0-47.77 47.68v38.96a47.73 47.73 0 0 0 47.78 47.7h7.6a40.2 40.2 0 0 0 40.19-40.12v-46.54a47.78 47.78 0 0 0-47.8-47.68zm45.27 94.22a37.7 37.7 0 0 1-37.66 37.6h-7.6a45.26 45.26 0 0 1-45.28-45.21v-28.29a.57.57 0 0 0 0-.13v-10.51a45.24 45.24 0 0 1 45.27-45.19 45.29 45.29 0 0 1 45.27 45.19z" fill="#fff" fill-rule="evenodd" data-name="Составная фигура"/><g data-name="Составная фигура"><path d="M256.53 215.91a1.07 1.07 0 0 0-.32-.38c-.3-3.59-.09-23.89.15-37.42a39.65 39.65 0 0 1 28.64-38 29.9 29.9 0 0 1 10.82-1.93h71.85v20.88a20.51 20.51 0 0 1-20.48 20.48h-46a15.22 15.22 0 0 0-12.92 7.27l-.15.24v11a17.89 17.89 0 0 1-17.87 17.87z" fill="#121214" fill-rule="evenodd"/><path d="M366.66 139.18v19.88a19.5 19.5 0 0 1-19.48 19.48h-46a16.23 16.23 0 0 0-13.78 7.75l-.29.48v11.24a16.89 16.89 0 0 1-16.87 16.87h-13c-.24-4.67 0-24.39.19-36.82a38.66 38.66 0 0 1 27.91-37h.17a28.92 28.92 0 0 1 10.38-1.83h70.84m2-2h-72.91a30.83 30.83 0 0 0-11.1 2 40.53 40.53 0 0 0-29.36 39s-.66 38.24 0 38.24h.16c.38 0-.16.6-.16.6h14.82a18.87 18.87 0 0 0 18.87-19.06v-10.68a14.14 14.14 0 0 1 12.07-6.79h46a21.48 21.48 0 0 0 21.48-21.48v-21.88z" fill="#fff"/></g><path d="M262.24 205.31c-4.11 3.53-7 3.07-9 9.46-2.74 8.73 10.91 18.06 17 12.3 3.28-1.6 3.85-7.19 6.62-9.46.19-8.75-5.54-12.6-14.62-12.3z" fill="#121214" fill-rule="evenodd" data-name="new_vector_shape_done"/><path d="M265.16 204.01a12.89 12.89 0 1 0 6.38 24.1 1.254 1.254 0 0 0-1.24-2.18 10.38 10.38 0 1 1 5.25-9 1.25 1.25 0 1 0 2.5 0 12.91 12.91 0 0 0-12.89-12.92z" fill="#fff" fill-rule="evenodd" data-name="Составная фигура"/><path d="M265.16 210.93a6 6 0 0 0-6 6 1.25 1.25 0 1 0 2.5 0 3.48 3.48 0 0 1 3.48-3.48 1.25 1.25 0 0 0 0-2.5z" fill="#fff" fill-rule="evenodd" data-name="Составная фигура"/><path d="M353.54 200.4a15 15 0 1 0 15 15 15 15 0 0 0-15-15zm0 27.45a12.48 12.48 0 1 1 12.45-12.47 12.48 12.48 0 0 1-12.45 12.47zm-37.92-27.45a15 15 0 1 0 15 15 15 15 0 0 0-15-15zm0 27.45a12.48 12.48 0 1 1 12.48-12.47 12.49 12.49 0 0 1-12.48 12.47z" fill="#00ffc4" fill-rule="evenodd" data-name="Составная фигура"/><path d="M341.79 207.38h-13.8a1.25 1.25 0 0 0 0 2.5h13.8a1.25 1.25 0 1 0 0-2.5zm-41.15 6.63l-23 .1a1.25 1.25 0 0 0 0 2.5l23-.1a1.25 1.25 0 0 0 0-2.5z" fill="#00ffc4" fill-rule="evenodd" data-name="Составная фигура"/><path d="M318.56 242.92v1.25a11.24 11.24 0 0 0 22.47 0v-1.25zm11.23 10a8.75 8.75 0 0 1-8.64-7.48h17.29a8.76 8.76 0 0 1-8.65 7.46z" fill="#fff" fill-rule="evenodd" data-name="Составная фигура"/></g><g data-name="Man #1"><path d="M236.18 304.61h-151a18.75 18.75 0 0 0-18.75 18.76V464.3h188.56V323.37a18.76 18.76 0 0 0-18.81-18.76z" fill="#121214" fill-rule="evenodd" data-name="Составная фигура"/><path d="M236.18 303.36h-151a20 20 0 0 0-20 20v142.19h191V323.37a20 20 0 0 0-20-20.01zm17.5 159.65h-186V323.37a17.53 17.53 0 0 1 17.5-17.51h151a17.53 17.53 0 0 1 17.5 17.51z" fill="#fff" fill-rule="evenodd" data-name="Составная фигура"/><path d="M98.32 303.36c-8.08 0-14.66 6.16-14.66 13.72v148.47h29.33V303.36zm12.16 159.65H86.16v-146c0-6.18 5.46-11.22 12.16-11.22h12.16z" fill="#fff" fill-rule="evenodd" data-name="Составная фигура"/><path d="M84.18 369.78v27.58h172v-27.58zm169.5 25.08h-167v-22.58h167z" fill="#fff" fill-rule="evenodd" data-name="Составная фигура"/><path d="M360.47 416.01c-121.48 0-125.14-107.12-125.24-111.68a15.75 15.75 0 0 0-31.49.51c0 1.46.75 36.19 20.34 71.07 18.35 32.67 56.91 71.61 136.39 71.61a15.75 15.75 0 0 0 0-31.5z" fill="#121214" fill-rule="evenodd" data-name="Составная фигура"/><path d="M360.47 414.77c-120.26 0-123.89-106-124-110.47a17.002 17.002 0 0 0-34 .56c0 1.48.76 36.52 20.5 71.66 18.51 33 57.4 72.26 137.48 72.26a17 17 0 0 0 0-34zm0 31.5c-78.87 0-117.11-38.59-135.3-71-19.43-34.59-20.16-69-20.18-70.47a14.51 14.51 0 0 1 14.24-14.68h.31a14.54 14.54 0 0 1 14.45 14.24c.1 4.61 3.81 112.91 126.49 112.91a14.5 14.5 0 0 1 0 29z" fill="#fff" fill-rule="evenodd" data-name="Составная фигура"/><path d="M205.3 280.01h-58a35.18 35.18 0 0 0-35.18 35.18V464.3h128.36V315.17a35.18 35.18 0 0 0-35.18-35.16z" fill="#121214" fill-rule="evenodd" data-name="Составная фигура"/><path d="M205.3 278.73h-58a36.48 36.48 0 0 0-36.43 36.44v150.38h130.86V315.17a36.48 36.48 0 0 0-36.43-36.44zm33.93 184.28H113.37V315.17a34 34 0 0 1 33.93-33.93h58a34 34 0 0 1 33.93 33.93z" fill="#fff" fill-rule="evenodd" data-name="Составная фигура"/><path d="M163.06 259.87v18c0 .55 0 1.09.07 1.63a20 20 0 0 0 20 18.4l10.23 15.28a2.86 2.86 0 0 0 5-.56c3-7.8 8.43-15.88 8.43-20.9v-25.21z" fill="#121214" fill-rule="evenodd" data-name="Составная фигура"/><path d="M161.89 255.01v22.82c0 .58 0 1.15.07 1.73a21.38 21.38 0 0 0 20.53 19.54l10.3 15.48a3.65 3.65 0 0 0 3 1.62 2.55 2.55 0 0 0 .39 0 3.61 3.61 0 0 0 3-2.28c3.33-8.43 8.92-23.37 8.92-28.69v-19.72zm43.72 30.2c0 3.58-3.18 13.71-8.74 27.78a1.13 1.13 0 0 1-2 .2l-11-16.58h-.67a18.87 18.87 0 0 1-18.72-17.26c0-.51-.06-1-.06-1.52v-19.65l41.22 9.33z" fill="#fff" fill-rule="evenodd" data-name="Составная фигура"/><path d="M192.24 141.91c-2.94 1.93-9.82 2.31-13.25 3.79-11.61 5-20.64 15.67-25.07 27.91-3.23 8.93-1.89 23.31-1.89 35v25.55c5.11 21.18 16.06 32.75 36.9 38.32 4.19 1.12 18.1 2.29 23.65.95 18-4.37 27-15.28 32.16-32.65v-59.13c-6.46-24.92-20.64-40.07-52.5-39.74z" fill="#121214" fill-rule="evenodd" data-name="new_vector_shape_done"/><path d="M198.29 140.31a47.68 47.68 0 0 0-47.68 47.7v6.44a.76.76 0 0 0 0 .15v32.36a47.7 47.7 0 0 0 47.69 47.71h7.55a40.16 40.16 0 0 0 40.14-40.14v-46.52a47.73 47.73 0 0 0-47.7-47.7zm45.17 94.22a37.65 37.65 0 0 1-37.61 37.62h-7.55a45.19 45.19 0 0 1-45.19-45.2v-28.31a.66.66 0 0 0 0-.14v-10.49a45.19 45.19 0 0 1 45.18-45.2 45.23 45.23 0 0 1 45.17 45.2z" fill="#fff" fill-rule="evenodd" data-name="Составная фигура"/><path d="M230.92 141.56h-35.2c-30.14 0-52.47 18.1-52.47 48.25v30.86h12.68c12.31 0 18.81-2 18.81-18.82a17 17 0 0 1 16.92-17l39.3-.08a21.63 21.63 0 0 0 0-43.25z" fill="#121214" fill-rule="evenodd" data-name="Составная фигура"/><path d="M231.07 140.01h-35.26c-32.19 0-53.82 20-53.82 49.74v32.26h14c13.62 0 20.1-3 20.1-20.17a15.77 15.77 0 0 1 15.7-15.78l39.36-.08a23 23 0 0 0 0-46zm0 43.46l-39.35.08a18.29 18.29 0 0 0-18.2 18.3c0 15.91-5.64 17.66-17.6 17.66H144.5v-29.76c0-28.26 20.62-47.24 51.31-47.24h35.26a20.48 20.48 0 0 1 0 40.95z" fill="#fff" fill-rule="evenodd" data-name="Составная фигура"/><path d="M148.25 209.09c-6.63 5-9.19 4.26-8.52 15.62 2.33 2.56 8 11.06 13.25 7.09 6.34-.32 5.87-7.34 9.46-10.41.16-8.61-5.31-12.56-14.19-12.3z" fill="#121214" fill-rule="evenodd" data-name="new_vector_shape_done"/><path d="M150.92 207.81a12.86 12.86 0 1 0 6.37 24 1.254 1.254 0 0 0-1.24-2.18 10.35 10.35 0 1 1 5.23-9 1.25 1.25 0 0 0 2.5 0 12.88 12.88 0 0 0-12.86-12.82z" fill="#fff" fill-rule="evenodd" data-name="Составная фигура"/><path d="M150.92 214.69a6 6 0 0 0-6 6 1.25 1.25 0 0 0 2.5 0 3.47 3.47 0 0 1 3.47-3.47 1.26 1.26 0 0 0 0-2.51z" fill="#fff" fill-rule="evenodd" data-name="Составная фигура"/><path fill="#00ffc4" fill-rule="evenodd" d="M211.21 307.44H195.1l-9.91 125.42 17.97 12.12 18.89-12.12-10.84-125.42z" data-name="Составная фигура"/><path d="M212.36 306.18h-18.37l-10.1 127.31 19.25 13 20.22-13zM186.5 432.23l9.76-123.55h13.8l10.68 123.53-17.57 11.27z" fill="#fff" fill-rule="evenodd" data-name="Составная фигура"/><path d="M218.25 290.47c-.64-2.27-2.16-5.74-2.84-8s-.21-3.72-1.41-5.21v-.94h-5.68q-.48 8-1 16.08c1.68 7.8 4.1 16.62 4.26 25.08 2.46-1.52 1.91-6.84 2.84-9.94s4.87-13.37 3.83-17.07z" fill="#121214" fill-rule="evenodd" data-name="new_vector_shape_done"/><path d="M218.88 289.76l-3.15-12.35a2.7 2.7 0 0 0-2.67-2.22h-4.68a1.25 1.25 0 0 0 0 2.5h4.68a.21.21 0 0 1 .21.18l3.17 12.45a10.79 10.79 0 0 1-.07 4.63l-4.1 17.45-3.65-21.47a1.24 1.24 0 0 0-1.44-1 1.26 1.26 0 0 0-1 1.45l5.7 33.63 6.93-29.49a13.31 13.31 0 0 0 .07-5.76z" fill="#fff" fill-rule="evenodd" data-name="Составная фигура"/><path d="M161.87 270.86a3.11 3.11 0 0 0-3.11 3.11v7.79l36.93 36.76a.69.69 0 0 0 1.17-.49v-26.89z" fill="#121214" fill-rule="evenodd" data-name="Составная фигура"/><path d="M162.99 270.19l-.3-.17h-.34a4.42 4.42 0 0 0-4.4 4.41v8.41l37.67 37.59a2 2 0 0 0 3.37-1.42v-28zm33.44 47.48l-35.95-35.88v-7.36a1.87 1.87 0 0 1 1.57-1.85l34.38 20z" fill="#fff" fill-rule="evenodd" data-name="Составная фигура"/><rect x="196.86" y="291.14" width="13.52" height="16.29" rx="2.99" ry="2.99" fill="#00ffc4" data-name="Составная фигура"/><path d="M207.74 290.01h-7.52a4.27 4.27 0 0 0-4.24 4.3v10.42a4.27 4.27 0 0 0 4.24 4.29h7.52a4.27 4.27 0 0 0 4.24-4.29v-10.42a4.27 4.27 0 0 0-4.24-4.3zm1.74 14.72a1.75 1.75 0 0 1-1.74 1.76h-7.52a1.75 1.75 0 0 1-1.74-1.76v-10.42a1.75 1.75 0 0 1 1.74-1.77h7.52a1.75 1.75 0 0 1 1.74 1.77z" fill="#121214" fill-rule="evenodd" data-name="Составная фигура"/><path d="M247.21 416.79h-60.07c-7.31 0-15.34.6-20.81-1.42-9.32-3.44-16.75-11.63-19.87-21.29-2.19-6.8-.94-17.28-.94-25.55v-50.62H114.3v37.37c0 12.63-1.92 33.55 1 44 7.81 28.56 25 41.6 53.92 49.21h81.77c3.37-1.25 7.58-4.23 9.46-7.1 1.07-1.64 1.12-3.8 2.36-5.2.08-10.52-7.82-17.18-15.6-19.4z" fill="#121214" fill-rule="evenodd" data-name="new_vector_shape_done"/><path d="M254.42 421.68a31.38 31.38 0 0 0-9.18-5h-70.25a30.11 30.11 0 0 1-30.07-30.08v-67.8h-2.5v67.76a32.61 32.61 0 0 0 32.57 32.58h69.89c2.15.6 14.65 6.79 14.65 14.5a14.53 14.53 0 0 1-14.54 14.51h-70a61.65 61.65 0 0 1-61.57-61.59V318.8h-2.5v67.76a64.15 64.15 0 0 0 64.07 64.09h70a17 17 0 0 0 17-17c0-4.06-2.63-8.2-7.57-11.97z" fill="#fff" fill-rule="evenodd" data-name="Составная фигура"/><rect x="149.2" y="389.83" width="43.5" height="9.06" rx="2.18" ry="2.18" fill="#121214" data-name="Составная фигура"/><path d="M190.52 388.57h-39.14a3.44 3.44 0 0 0-3.39 3.44v4.7a3.44 3.44 0 0 0 3.43 3.43h39.14a3.44 3.44 0 0 0 3.44-3.43v-4.7a3.44 3.44 0 0 0-3.48-3.44zm.93 8.13a.93.93 0 0 1-.93.93h-39.14a.93.93 0 0 1-.93-.93v-4.69a.93.93 0 0 1 .93-.93h39.14a.93.93 0 0 1 .93.93z" fill="#fff" fill-rule="evenodd" data-name="Составная фигура"/><path d="M152.37 398.88l3.62 45.89a2.79 2.79 0 0 0 2.77 2.56h24.48a2.78 2.78 0 0 0 2.77-2.57l3.52-45.88z" fill="#121214" fill-rule="evenodd" data-name="Составная фигура"/><path d="M150.99 397.63l3.74 47.24a4.05 4.05 0 0 0 4 3.71h24.48a4 4 0 0 0 4-3.72l3.62-47.23zm33.76 47a1.54 1.54 0 0 1-1.53 1.42h-24.45a1.53 1.53 0 0 1-1.52-1.41l-3.53-44.54h34.47z" fill="#fff" fill-rule="evenodd" data-name="Составная фигура"/><path d="M182.28 380.93l-23.63 2.84a4.08 4.08 0 0 0-3.58 4.05v2h31.77v-4.81a4.07 4.07 0 0 0-4.56-4.08z" fill="#121214" fill-rule="evenodd" data-name="Составная фигура"/><path d="M186.3 381.01a5.34 5.34 0 0 0-4.17-1.31l-23.63 2.85a5.32 5.32 0 0 0-4.68 5.29v3.25h34.27v-6.08a5.35 5.35 0 0 0-1.79-4zm-.71 7.58h-29.27v-.75a2.82 2.82 0 0 1 2.48-2.8l23.63-2.85a2.82 2.82 0 0 1 3.16 2.8zm21.74-143.58v1.25a11.23 11.23 0 1 0 22.46 0v-1.25zm11.23 10a8.75 8.75 0 0 1-8.64-7.49h17.28a8.74 8.74 0 0 1-8.64 7.49zm8.59-45.16a1.25 1.25 0 0 0-1.25 1.25v15.75a5.76 5.76 0 0 1-5.76 5.76 1.26 1.26 0 0 0 0 2.51 8.28 8.28 0 0 0 8.27-8.27V211.1a1.26 1.26 0 0 0-1.26-1.25z" fill="#fff" fill-rule="evenodd" data-name="Составная фигура"/></g><g fill-rule="evenodd"><path d="M285.89 388.57h-39.14a3.44 3.44 0 0 0-3.44 3.43v4.7a3.44 3.44 0 0 0 3.44 3.43h39.14a3.44 3.44 0 0 0 3.43-3.43v-4.69a3.44 3.44 0 0 0-3.43-3.44zm.93 8.13a.93.93 0 0 1-.93.93h-39.14a.93.93 0 0 1-.93-.93v-4.69a.93.93 0 0 1 .93-.93h39.14a.93.93 0 0 1 .93.93z" fill="#fff" data-name="Составная фигура"/><path d="M247.73 398.88l3.51 45.88a2.8 2.8 0 0 0 2.78 2.57h24.47a2.8 2.8 0 0 0 2.78-2.56l3.63-45.89z" fill="#121214" data-name="Составная фигура"/><path d="M278.77 382.53l-23.63-2.85a5.33 5.33 0 0 0-6 5.29v6.1h34.27v-3.25a5.32 5.32 0 0 0-4.64-5.29zm2.18 6h-29.27v-3.52a2.82 2.82 0 0 1 3.16-2.8l23.63 2.8a2.82 2.82 0 0 1 2.48 2.8zm-34.57 9.1l3.61 47.23a4 4 0 0 0 4 3.72h24.5a4.05 4.05 0 0 0 4-3.71l3.74-47.24zm33.64 47a1.55 1.55 0 0 1-1.53 1.41h-24.5a1.54 1.54 0 0 1-1.53-1.41l-3.41-44.54h34.47z" fill="#fff" data-name="Составная фигура"/></g><g fill-rule="evenodd"><path d="M545.93 439.85h-78.38v9.71h88.09a9.71 9.71 0 0 0-9.71-9.71z" fill="#121214" data-name="Составная фигура"/><path d="M545.93 438.6H466.3v12.22h90.6v-1.26a11 11 0 0 0-10.97-10.96zm-77.13 9.71v-7.21h77.13a8.47 8.47 0 0 1 8.37 7.21z" fill="#fff" data-name="Составная фигура"/><path d="M453.44 332.5a15.28 15.28 0 0 0-15-12.38H278.38a15.28 15.28 0 0 0-15 18.19l21.35 110.43h191.19z" fill="#121214" data-name="Составная фигура"/><path d="M454.67 332.26a16.57 16.57 0 0 0-16.23-13.4H278.38a16.55 16.55 0 0 0-16.23 19.68l21.55 111.47h193.73zm-190.07 5.81a14 14 0 0 1 13.78-16.7h160.06a14.06 14.06 0 0 1 13.78 11.37l22.18 114.75H285.76z" fill="#fff" data-name="Составная фигура"/><path d="M473.99 438.43a5.16 5.16 0 1 0 5.16 5.16 5.16 5.16 0 0 0-5.16-5.16zM446.37 332.5a15.29 15.29 0 0 0-15-12.38h-160a15.29 15.29 0 0 0-15 18.19l21.35 110.43h191.12z" fill="#121214" data-name="Составная фигура"/><path d="M358.36 373.18a15 15 0 1 0 15 15 15 15 0 0 0-15-15z" fill="#00ffc4" data-name="Составная фигура"/><path d="M447.6 332.26a16.57 16.57 0 0 0-16.24-13.4h-160a16.55 16.55 0 0 0-16.24 19.68l21.5 111.47h193.74zm-190.07 5.81a14 14 0 0 1 13.78-16.7h160.05a14.05 14.05 0 0 1 13.78 11.37l22.18 114.75H278.68z" fill="#fff" data-name="Составная фигура"/><path d="M473.99 437.17a6.42 6.42 0 1 0 6.41 6.42 6.43 6.43 0 0 0-6.41-6.42zm0 10.32a3.91 3.91 0 1 1 3.91-3.9 3.91 3.91 0 0 1-3.91 3.9z" fill="#fff" data-name="Составная фигура"/></g><g fill-rule="evenodd"><path d="M732.7 447.69H27.3a26.05 26.05 0 0 0-26 26.06h757.44a26.05 26.05 0 0 0-26.04-26.06z" fill="#121214" data-name="Составная фигура"/><path d="M732.7 446.44H27.3A27.33 27.33 0 0 0-.01 473.75v1.26h760v-1.25a27.34 27.34 0 0 0-27.29-27.32zM2.53 472.49a24.84 24.84 0 0 1 24.77-23.55h705.4a24.83 24.83 0 0 1 24.76 23.55z" fill="#fff" data-name="Составная фигура"/></g></svg>