<svg xmlns="http://www.w3.org/2000/svg" viewBox="0 0 660 368.05"><g data-name="Man #2"><path d="M538.28 187.07h-143.8a21.76 21.76 0 0 0-21.72 21.74v158.26h187.23v-158.3a21.76 21.76 0 0 0-21.71-21.7zm19 177.32h-181.8V208.77a19 19 0 0 1 19-19h143.8a19 19 0 0 1 19 19z" fill="#fff" data-name="Составная фигура"/><path d="M406.67 166.72a15.3 15.3 0 0 0-15.53 15c-.09 4.42-3.64 108.23-121.36 108.23a15.27 15.27 0 0 0 0 30.53c77 0 114.38-37.74 132.17-69.4 19-33.79 19.69-67.44 19.71-68.86a15.24 15.24 0 0 0-14.99-15.5z" fill="#121214" data-name="Составная фигура"/><path d="M406.7 165.47a16.54 16.54 0 0 0-16.81 16.19c-.09 4.37-3.62 107-120.11 107a16.52 16.52 0 0 0 0 33c77.62 0 115.31-38.08 133.26-70 19.12-34 19.85-68 19.87-69.46a16.53 16.53 0 0 0-16.21-16.73zm-5.84 85c-17.62 31.37-54.67 68.76-131.08 68.76a14 14 0 0 1 0-28c118.91 0 122.52-105 122.61-109.45a14 14 0 0 1 4.32-9.83 13.82 13.82 0 0 1 9.64-3.91h.3a14 14 0 0 1 13.76 14.19c-.02 1.34-.73 34.7-19.55 68.2z" fill="#fff" data-name="Составная фигура"/><path d="M486.4 151.28h-60.41c-20.23 0-36.62 17.16-36.62 38.34v165.81h133.62V189.62c0-21.18-16.36-38.34-36.59-38.34z" fill="#121214" data-name="Составная фигура"/><path d="M485.38 149.92h-60.39c-20.94 0-38 17.81-38 39.7v167.17h136.37V189.62c0-21.89-17.04-39.7-37.98-39.7zm35.26 204.15H389.73V189.62c0-20.39 15.82-37 35.26-37h60.39c19.44 0 35.26 16.59 35.26 37z" fill="#fff" data-name="Составная фигура"/><path d="M522.51 234.41v-40.09c-7.7.16-16.6 2.41-23.62 4.11-3.52.85-7.62-.21-10.27 1.54l-1 1c1.86 9.72.51 22.73.51 33.41 0 36.3 1.18 56.7-27.72 64.77l-20 .52h-64.23c-8 2.75-16.05 9.38-15.91 20.56 1.49 1.38 1.45 3.86 2.56 5.65a20.49 20.49 0 0 0 8.73 7.2c4.08 1.57 10.41 1 15.92 1h31.83c14.32 0 34.41 2.08 46.72-1 30.07-7.6 47.92-25.37 55.45-55.52 3.02-12.05 1.03-29.32 1.03-43.15z" fill="#121214"/><path d="M522.25 192.95a1.36 1.36 0 0 0-1.36 1.36v71.06a67.14 67.14 0 0 1-67 67.11h-76.27a15.81 15.81 0 0 1-15.78-15.8c0-8.42 13.6-15.16 15.95-15.81h76.07a35.52 35.52 0 0 0 35.46-35.5v-65.45a1.36 1.36 0 0 0-2.72 0v65.45a32.79 32.79 0 0 1-32.74 32.78h-76.52a34.24 34.24 0 0 0-10 5.47c-5.38 4.1-8.23 8.6-8.23 13a18.53 18.53 0 0 0 18.5 18.52h76.24a69.87 69.87 0 0 0 69.75-69.83v-71a1.36 1.36 0 0 0-1.35-1.36z" fill="#fff" data-name="Составная фигура"/><path d="M426.08 136.59v20.42a12.08 12.08 0 0 0 1.37 5.37 15.65 15.65 0 0 0 14.06 8.41h10.37a21.81 21.81 0 0 0 21.73-20.06c0-.58.07-1.17.07-1.77v-19.6z" fill="#121214" data-name="Составная фигура"/><path d="M424.72 135.42v21.59a13.4 13.4 0 0 0 1.51 6 17.09 17.09 0 0 0 15.28 9.17h10.36a23.29 23.29 0 0 0 23.12-21.33c0-.62.08-1.24.08-1.88v-21.19zm47.6 13.55c0 .56 0 1.1-.07 1.66a20.54 20.54 0 0 1-20.37 18.81h-10.37a14.36 14.36 0 0 1-12.85-7.66 10.71 10.71 0 0 1-1.22-4.76v-19.26l44.88-6.82z" fill="#5b141a" data-name="Составная фигура"/><path d="M424.64 135.42v21.83a15.25 15.25 0 0 0 15.35 14.91h11.8a23.27 23.27 0 0 0 23.08-21.31c0-.62.08-1.24.08-1.88v-21.19zm47.6 13.55c0 .56 0 1.1-.08 1.66a20.54 20.54 0 0 1-20.37 18.81h-11.8a12.53 12.53 0 0 1-12.61-12.21v-19.47l44.89-6.82z" fill="#fff" fill-rule="evenodd" data-name="Составная фигура"/><path d="M495.3 72.49c0-13.28 1.09-28.13-2.57-38-4.87-13.26-15.74-25.31-28.74-30.37a87.33 87.33 0 0 0-11.31-3.05c-2.25-.54-5.09.46-6.67-.51-30.95.27-45.74 19.2-51.86 44.72v31.36c0 10.78-1.82 27.75 1 36.5 6.5 20 19.07 28.14 42.1 31.87 6 1 17.87-1.54 22.08-3.09 19.13-7.05 30.16-18.28 35.42-39.07 2.24-8.71.55-20.78.55-30.36z" fill="#121214" fill-rule="evenodd" data-name="new_vector_shape_done"/><path d="M496.83 58.82v-7A51.83 51.83 0 0 0 444.99.01a51.89 51.89 0 0 0-51.85 51.81v50.56a43.66 43.66 0 0 0 43.63 43.6h8.22a51.83 51.83 0 0 0 51.86-51.83V58.98a.92.92 0 0 0-.02-.16zm-2.71 35.33a49.13 49.13 0 0 1-49.13 49.12h-8.21a41 41 0 0 1-40.92-40.89V51.82a49.18 49.18 0 0 1 49.13-49.1 49.11 49.11 0 0 1 49.14 49.1v11.41a.76.76 0 0 0 0 .15z" fill="#fff" fill-rule="evenodd" data-name="Составная фигура"/><g data-name="Составная фигура"><path d="M490.79 85.64a19.52 19.52 0 0 1-19.48-19.51V54.21l-.15-.24a16.44 16.44 0 0 0-13.95-7.85h-50a22.35 22.35 0 0 1-22.31-22.34V1h78.09a32.51 32.51 0 0 1 11.66 2.07 43.22 43.22 0 0 1 31.23 41.39c.25 14.78.49 36.91.16 40.72a1 1 0 0 0-.38.45h-14.87z" fill="#121214" fill-rule="evenodd"/><path d="M462.99 2a31.6 31.6 0 0 1 11.34 2h.16a42.18 42.18 0 0 1 30.43 40.43c.23 13.63.47 35.35.19 40.15h-14.32a18.52 18.52 0 0 1-18.48-18.51v-12.2l-.3-.48a17.42 17.42 0 0 0-14.8-8.33h-50a21.36 21.36 0 0 1-21.29-21.29V2h77.07m0-2h-79.11v23.78a23.32 23.32 0 0 0 23.31 23.34h50a15.36 15.36 0 0 1 13.1 7.37v11.64a20.5 20.5 0 0 0 20.48 20.51h16.09s-.59-.66-.17-.66h.17c.71 0 0-41.55 0-41.55a44 44 0 0 0-31.87-42.29 33.16 33.16 0 0 0-12-2.14z" fill="#fff"/></g><path d="M509.16 84.31c-2.18-7-5.29-6.45-9.75-10.28-9.86-.3-16.07 3.85-15.92 13.36 3 2.47 3.63 8.54 7.19 10.28 6.64 6.26 21.46-3.88 18.48-13.36z" fill="#121214" fill-rule="evenodd" data-name="new_vector_shape_done"/><path d="M496.24 72.63a14 14 0 0 0-14 14 1.36 1.36 0 1 0 2.71 0 11.26 11.26 0 1 1 5.7 9.81 1.36 1.36 0 0 0-1.86.5 1.37 1.37 0 0 0 .51 1.86 14 14 0 1 0 6.93-26.18z" fill="#fff" fill-rule="evenodd" data-name="Составная фигура"/><path d="M496.24 80.13a1.36 1.36 0 0 0 0 2.72 3.79 3.79 0 0 1 3.78 3.79 1.36 1.36 0 1 0 2.71 0 6.51 6.51 0 0 0-6.49-6.51z" fill="#fff" fill-rule="evenodd" data-name="Составная фигура"/><path d="M400.31 68.7a16.27 16.27 0 1 0 16.25 16.27 16.29 16.29 0 0 0-16.25-16.27zm0 29.82a13.56 13.56 0 1 1 13.54-13.55 13.56 13.56 0 0 1-13.54 13.55zm41.15-29.82a16.27 16.27 0 1 0 16.25 16.27 16.28 16.28 0 0 0-16.25-16.27zm0 29.82a13.56 13.56 0 1 1 13.53-13.55 13.57 13.57 0 0 1-13.53 13.55z" fill="#00ffc4" fill-rule="evenodd" data-name="Составная фигура"/><path d="M427.99 76.28h-14.93a1.36 1.36 0 0 0 0 2.72h14.93a1.36 1.36 0 1 0 0-2.72zm54.71 7.33l-25-.11a1.36 1.36 0 0 0 0 2.72l25 .11a1.36 1.36 0 0 0 0-2.72z" fill="#00ffc4" fill-rule="evenodd" data-name="Составная фигура"/><path d="M413.89 114.89v1.36a12.19 12.19 0 1 0 24.38 0v-1.36zm12.19 10.85a9.5 9.5 0 0 1-9.38-8.13h18.76a9.5 9.5 0 0 1-9.38 8.13z" fill="#fff" fill-rule="evenodd" data-name="Составная фигура"/></g><path d="M637.4 341.07H25.59c-12.48 0-22.6 11.63-22.6 26h657c0-14.37-10.11-26-22.59-26z" fill="#121214" fill-rule="evenodd" data-name="Составная фигура"/><path d="M636.29 339.07H23.7c-13.07 0-23.71 12.43-23.71 27.72v1.28h660v-1.27c0-15.3-10.63-27.73-23.7-27.73zM2.2 365.52c.57-13.3 10-23.91 21.5-23.91h612.59c11.51 0 20.94 10.61 21.5 23.91z" fill="#fff" fill-rule="evenodd" data-name="Составная фигура"/><path d="M416.04 328.52h-85.05v10.55h95.63a10.55 10.55 0 0 0-10.58-10.55z" fill="#121214" fill-rule="evenodd" data-name="Составная фигура"/><path d="M416.04 327.16h-86.45v13.28h98.4v-1.37a11.93 11.93 0 0 0-11.95-11.91zm-83.73 10.56v-7.84h83.73a9.2 9.2 0 0 1 9.08 7.84z" fill="#fff" fill-rule="evenodd" data-name="Составная фигура"/><path d="M315.64 211.88a16.6 16.6 0 0 0-16.29-13.46H125.62a16.61 16.61 0 0 0-16.29 19.77l23.18 120h207.53z" fill="#121214" fill-rule="evenodd" data-name="Составная фигура"/><path d="M316.99 211.62a18 18 0 0 0-17.64-14.55H125.62a18 18 0 0 0-17.63 21.38l23.4 121.09h210.29zm-206.32 6.31a15.26 15.26 0 0 1 15-18.15h173.68a15.26 15.26 0 0 1 15 12.36l24.04 124.68H133.63z" fill="#fff" fill-rule="evenodd" data-name="Составная фигура"/><path d="M337.99 326.97a5.61 5.61 0 1 0 5.6 5.61 5.6 5.6 0 0 0-5.6-5.61zm-30-115.09a16.6 16.6 0 0 0-16.29-13.46H117.99a16.61 16.61 0 0 0-16.29 19.77l23.18 120h207.48z" fill="#121214" fill-rule="evenodd" data-name="Составная фигура"/><path d="M212.43 256.07a16.26 16.26 0 1 0 16.24 16.25 16.25 16.25 0 0 0-16.24-16.25z" fill="#00ffc4" fill-rule="evenodd" data-name="Составная фигура"/><path d="M309.3 211.62a18 18 0 0 0-17.63-14.55H117.99a18 18 0 0 0-17.62 21.39l23.38 121.09h210.24zm-206.31 6.31a15.26 15.26 0 0 1 15-18.15h173.68a15.26 15.26 0 0 1 15 12.36l24.08 124.68H125.99z" fill="#fff" fill-rule="evenodd" data-name="Составная фигура"/><path d="M337.99 325.61a7 7 0 1 0 6.95 7 7 7 0 0 0-6.95-7zm0 11.22a4.25 4.25 0 1 1 4.24-4.25 4.26 4.26 0 0 1-4.24 4.25z" fill="#fff" fill-rule="evenodd" data-name="Составная фигура"/><g fill-rule="evenodd"><path d="M458.32 276.15h-42.49a3.73 3.73 0 0 0-3.72 3.73v5.1a3.73 3.73 0 0 0 3.72 3.73h42.49a3.73 3.73 0 0 0 3.72-3.73v-5.1a3.73 3.73 0 0 0-3.72-3.73zm1 8.83a1 1 0 0 1-1 1h-42.49a1 1 0 0 1-1-1v-5.1a1 1 0 0 1 1-1h42.49a1 1 0 0 1 1 1z" fill="#fff" data-name="Составная фигура"/><path d="M416.9 287.35l3.82 49.85a3 3 0 0 0 3 2.79h26.58a3 3 0 0 0 3-2.78l4-49.86z" fill="#121214" data-name="Составная фигура"/><path d="M450.59 269.59l-25.6-3.1a5.78 5.78 0 0 0-6.46 5.74v6.64h37.19v-3.54a5.77 5.77 0 0 0-5.13-5.74zm2.37 6.56h-31.77v-3.92a3.06 3.06 0 0 1 3.43-3l25.65 3.1a3.06 3.06 0 0 1 2.69 3zm-37.52 9.84l3.92 51.32a4.4 4.4 0 0 0 4.36 4h26.58a4.41 4.41 0 0 0 4.36-4l4.06-51.33zm36.55 51.08a1.67 1.67 0 0 1-1.65 1.53h-26.62a1.66 1.66 0 0 1-1.65-1.53l-3.7-48.39h37.41z" fill="#fff" data-name="Составная фигура"/></g><path d="M273.79 87.07H182.2a2.21 2.21 0 0 0-2.2 2.21v39.59a2.21 2.21 0 0 0 2.2 2.22h91.59a2.21 2.21 0 0 0 2.2-2.22v-39.6a2.21 2.21 0 0 0-2.2-2.2zm.52 41.8a.52.52 0 0 1-.52.53H182.2a.52.52 0 0 1-.52-.53v-39.6a.52.52 0 0 1 .52-.52h91.59a.52.52 0 0 1 .52.52z" fill="#fff" fill-rule="evenodd" data-name="Составная фигура"/><path d="M227.55 97.42a11.68 11.68 0 1 0 11.68 11.65 11.68 11.68 0 0 0-11.68-11.65z" fill="#fff" fill-rule="evenodd" data-name="Составная фигура"/><path d="M227.55 96.59a12.52 12.52 0 1 0 12.52 12.48 12.52 12.52 0 0 0-12.52-12.48zm0 23.36a10.85 10.85 0 1 1 10.85-10.88 10.86 10.86 0 0 1-10.85 10.88z" fill="#5b141a" fill-rule="evenodd" data-name="Составная фигура"/><circle cx="227.56" cy="109.28" r="11.68" fill="#fff" data-name="Составная фигура"/><path d="M227.55 96.77a12.52 12.52 0 1 0 12.52 12.52 12.53 12.53 0 0 0-12.52-12.52zm0 23.36a10.85 10.85 0 1 1 10.85-10.84 10.85 10.85 0 0 1-10.85 10.84zM207.8 92.76h-21.56a.84.84 0 1 0 0 1.67h21.56a.84.84 0 0 0 0-1.67zm0 30.77h-21.56a.85.85 0 0 0-.84.84.84.84 0 0 0 .84.83h21.56a.83.83 0 0 0 .83-.83.84.84 0 0 0-.83-.84zm60.73-30.77h-21.54a.84.84 0 1 0 0 1.67h21.56a.84.84 0 1 0 0-1.67zm0 30.77h-21.54a.85.85 0 0 0-.84.84.84.84 0 0 0 .84.83h21.56a.84.84 0 0 0 .84-.83.85.85 0 0 0-.86-.84z" fill="#5b141a" fill-rule="evenodd" data-name="Составная фигура"/><path d="M231.22 109.53a2.77 2.77 0 0 0-1.27-1 10.51 10.51 0 0 0-2.25-.59 6.63 6.63 0 0 1-2.19-.67 1.52 1.52 0 0 1-.68-1.35 2.05 2.05 0 0 1 .77-1.57 2.83 2.83 0 0 1 2-.7 3.59 3.59 0 0 1 2 .57 1.32 1.32 0 0 1 .66.9.67.67 0 0 0 .16.38.41.41 0 0 0 .28.11.42.42 0 0 0 .33-.14.62.62 0 0 0 .13-.45v-1.33a.62.62 0 0 0-.13-.45.42.42 0 0 0-.33-.14.38.38 0 0 0-.3.13.54.54 0 0 0-.14.39 5.27 5.27 0 0 0-1.1-.59 4.78 4.78 0 0 0-1.18-.22v-1.13a.7.7 0 0 0-.12-.46.44.44 0 0 0-.33-.14.42.42 0 0 0-.32.14.7.7 0 0 0-.12.46v1.13a3.67 3.67 0 0 0-2.31 1.06 2.89 2.89 0 0 0-.86 2 2.24 2.24 0 0 0 .8 1.87 7 7 0 0 0 2.84 1 12.34 12.34 0 0 1 1.87.45 2.28 2.28 0 0 1 1 .72 1.83 1.83 0 0 1 .32 1.07 2.1 2.1 0 0 1-.86 1.65 3.53 3.53 0 0 1-2.35.71 3.85 3.85 0 0 1-2.28-.59 1.8 1.8 0 0 1-.9-1.14.67.67 0 0 0-.12-.43.44.44 0 0 0-.32-.13.39.39 0 0 0-.33.14.7.7 0 0 0-.12.46v1.73a.65.65 0 0 0 .13.46.42.42 0 0 0 .32.14.46.46 0 0 0 .25-.08.4.4 0 0 0 .15-.18 2.11 2.11 0 0 0 0-.57 4.49 4.49 0 0 0 2.74 1.06v1.73a.72.72 0 0 0 .12.47.42.42 0 0 0 .32.14.44.44 0 0 0 .33-.14.72.72 0 0 0 .12-.47v-1.73a4.38 4.38 0 0 0 2.7-1.1 2.85 2.85 0 0 0 .94-2.12 2.69 2.69 0 0 0-.37-1.46z" fill="#fff" fill-rule="evenodd" data-name="Составная фигура"/><path d="M231.92 109.07a3.61 3.61 0 0 0-1.61-1.3 11 11 0 0 0-2.46-.65 5.41 5.41 0 0 1-1.87-.55.68.68 0 0 1-.32-.65 1.22 1.22 0 0 1 .5-.95 2 2 0 0 1 1.41-.48 2.84 2.84 0 0 1 1.58.42.69.69 0 0 1 .3.34 1.42 1.42 0 0 0 .4.85 1.31 1.31 0 0 0 1.81-.06 1.49 1.49 0 0 0 .35-1v-1.33a1.47 1.47 0 0 0-.35-1 1.31 1.31 0 0 0-1.66-.18c-.19-.1-.38-.18-.55-.25a4.82 4.82 0 0 0-.63-.16v-.4a1.51 1.51 0 0 0-.33-1 1.31 1.31 0 0 0-1.9 0 1.46 1.46 0 0 0-.33 1v.35a4.37 4.37 0 0 0-2.07 1.18 3.69 3.69 0 0 0-1.1 2.62 3 3 0 0 0 1.12 2.52 7.64 7.64 0 0 0 3.21 1.2 9.56 9.56 0 0 1 1.69.4 1.41 1.41 0 0 1 .64.44 1 1 0 0 1 .16.58 1.26 1.26 0 0 1-.55 1 2.84 2.84 0 0 1-1.82.52 3.15 3.15 0 0 1-1.8-.44 2 2 0 0 1-.55-.52 1.41 1.41 0 0 0-.36-1 1.31 1.31 0 0 0-1.87.06 1.47 1.47 0 0 0-.32 1v1.73a1.43 1.43 0 0 0 .34 1 1.29 1.29 0 0 0 1.66.19l.17-.14a5.39 5.39 0 0 0 1.45.49v1a1.47 1.47 0 0 0 .33 1 1.26 1.26 0 0 0 .95.42 1.24 1.24 0 0 0 .95-.42 1.47 1.47 0 0 0 .33-1v-1a4.86 4.86 0 0 0 2.46-1.22 3.69 3.69 0 0 0 1.19-2.72 3.62 3.62 0 0 0-.55-1.89z" fill="#5b141a" fill-rule="evenodd" data-name="Составная фигура"/><path d="M246.63 71.01a11.68 11.68 0 1 0 1.51 16.45 11.68 11.68 0 0 0-1.51-16.45z" fill="#00ffc4" fill-rule="evenodd" data-name="Составная фигура"/><path d="M245.86 84.34a1.47 1.47 0 0 0-.57-.91l-.79-.65a4.77 4.77 0 0 0 .64-2.66 3.7 3.7 0 0 0-1.33-2.66 3.56 3.56 0 0 0-1.88-.85 3.68 3.68 0 0 0-2 .41 11.9 11.9 0 0 0-2.07 1.47 5.42 5.42 0 0 1-1.61 1.09.68.68 0 0 1-.7-.17 1.23 1.23 0 0 1-.42-1 2.05 2.05 0 0 1 .54-1.4 2.78 2.78 0 0 1 1.32-.94.67.67 0 0 1 .45 0 1.44 1.44 0 0 0 .91.23 1.26 1.26 0 0 0 .82-.44 1.31 1.31 0 0 0 .29-1 1.49 1.49 0 0 0-.56-.92l-1-.84a1.41 1.41 0 0 0-1-.39 1.25 1.25 0 0 0-.91.46 1.21 1.21 0 0 0-.29.7 4.54 4.54 0 0 0-.54.26 5.31 5.31 0 0 0-.53.38l-.3-.25a1.43 1.43 0 0 0-1-.4 1.27 1.27 0 0 0-.94.46 1.3 1.3 0 0 0-.28 1 1.5 1.5 0 0 0 .57.91l.33.27a4.41 4.41 0 0 0-.42 2.35 3.7 3.7 0 0 0 1.32 2.52 3.05 3.05 0 0 0 2.64.75 7.59 7.59 0 0 0 3-1.7 9.78 9.78 0 0 1 1.39-1.05 1.53 1.53 0 0 1 .75-.21 1.08 1.08 0 0 1 .55.25 1.26 1.26 0 0 1 .42 1.07 2.78 2.78 0 0 1-.77 1.73 3 3 0 0 1-1.48 1.1 2.43 2.43 0 0 1-.61.1h-.14a1.45 1.45 0 0 0-1-.33 1.28 1.28 0 0 0-1.16 1.48 1.5 1.5 0 0 0 .57.88l1.33 1.11a1.48 1.48 0 0 0 .95.39h.06a1.25 1.25 0 0 0 .91-.46 1.36 1.36 0 0 0 .29-.7.81.81 0 0 0 0-.22 5.12 5.12 0 0 0 1.31-.8l.77.64a1.46 1.46 0 0 0 1 .4 1.23 1.23 0 0 0 .92-.46 1.27 1.27 0 0 0 .25-1z" fill="#121214" fill-rule="evenodd" data-name="Составная фигура"/><path d="M220.05 42.68a11.68 11.68 0 1 0-.71 16.5 11.68 11.68 0 0 0 .71-16.5z" fill="#00ffc4" fill-rule="evenodd" data-name="Составная фигура"/><path d="M218.75 48.16a1.24 1.24 0 0 0-.64-.38 3.79 3.79 0 0 0-.2-.57 3.16 3.16 0 0 0-.3-.57l.29-.27a1.45 1.45 0 0 0 .53-.93 1.29 1.29 0 0 0-1.28-1.4 1.47 1.47 0 0 0-1 .45l-.31.28a4.32 4.32 0 0 0-2.27-.72 3.65 3.65 0 0 0-2.68 1 3.07 3.07 0 0 0-1.1 2.52 7.64 7.64 0 0 0 1.29 3.18 12.25 12.25 0 0 1 .85 1.51 1.42 1.42 0 0 1 .1.78 1 1 0 0 1-.32.51 1.22 1.22 0 0 1-1.11.27 2.82 2.82 0 0 1-1.61-1 3 3 0 0 1-.89-1.62 1.8 1.8 0 0 1 0-.76 1.47 1.47 0 0 0 .46-.91 1.23 1.23 0 0 0-.34-.93 1.25 1.25 0 0 0-1-.42 1.48 1.48 0 0 0-1 .45l-1.28 1.17a1.45 1.45 0 0 0-.52.94 1.27 1.27 0 0 0 1 1.35h.21a5.47 5.47 0 0 0 .62 1.41l-.74.67a1.52 1.52 0 0 0-.53.93 1.27 1.27 0 0 0 .34 1 1.22 1.22 0 0 0 .92.41 1.43 1.43 0 0 0 1-.44l.75-.69a4.83 4.83 0 0 0 2.55 1 3.72 3.72 0 0 0 2.82-1 3.53 3.53 0 0 0 1.09-1.76 3.58 3.58 0 0 0-.13-2.06 10.75 10.75 0 0 0-1.18-2.25 5.39 5.39 0 0 1-.86-1.75.68.68 0 0 1 .26-.67 1.21 1.21 0 0 1 1-.28 2 2 0 0 1 1.31.72 2.76 2.76 0 0 1 .75 1.44c0 .25 0 .39-.05.45a1.54 1.54 0 0 0-.35.88 1.25 1.25 0 0 0 .33.86 1.27 1.27 0 0 0 .94.42 1.44 1.44 0 0 0 1-.43l1-.89a1.45 1.45 0 0 0 .52-1 1.25 1.25 0 0 0-.24-.9z" fill="#121214" fill-rule="evenodd" data-name="Составная фигура"/><path d="M178.17 84.46h91.26a1.36 1.36 0 0 1 1.36 1.36V125a1.35 1.35 0 0 1-1.35 1.35h-91.27a1.35 1.35 0 0 1-1.35-1.35V85.82a1.35 1.35 0 0 1 1.35-1.36z" fill="#121214" data-name="Составная фигура"/><path d="M269.8 84.07h-91.62a2.19 2.19 0 0 0-2.2 2.16v38.66a2.19 2.19 0 0 0 2.2 2.17h91.62a2.19 2.19 0 0 0 2.2-2.17V86.23a2.19 2.19 0 0 0-2.2-2.16zm.52 40.82a.52.52 0 0 1-.52.52h-91.62a.52.52 0 0 1-.52-.52V86.23a.51.51 0 0 1 .52-.51h91.62a.51.51 0 0 1 .52.51z" fill="#fff" fill-rule="evenodd" data-name="Составная фигура"/><path d="M223.19 92.9a12.52 12.52 0 1 0 12.51 12.52 12.54 12.54 0 0 0-12.51-12.52zm0 23.37a10.85 10.85 0 1 1 10.8-10.85 10.86 10.86 0 0 1-10.8 10.85zm-20.03-27.2h-21.33a1 1 0 0 0 0 2h21.33a1 1 0 0 0 0-2zm0 31h-21.33a1 1 0 0 0 0 2h21.33a1 1 0 0 0 0-2zm61.01-31h-21.35a1 1 0 0 0 0 2h21.35a1 1 0 0 0 0-2zm0 31h-21.35a1 1 0 0 0 0 2h21.35a1 1 0 0 0 0-2z" fill="#fff" fill-rule="evenodd" data-name="Составная фигура"/><path d="M227.55 105.21a3.64 3.64 0 0 0-1.61-1.31 11.57 11.57 0 0 0-2.45-.65 5.65 5.65 0 0 1-1.87-.54.68.68 0 0 1-.32-.65 1.24 1.24 0 0 1 .5-1 2 2 0 0 1 1.41-.48 2.73 2.73 0 0 1 1.57.43c.21.14.29.25.3.34a1.45 1.45 0 0 0 .41.84 1.29 1.29 0 0 0 1.8-.06 1.45 1.45 0 0 0 .35-1v-1.32a1.45 1.45 0 0 0-.35-1 1.31 1.31 0 0 0-1.66-.19 3.68 3.68 0 0 0-.55-.24 4.61 4.61 0 0 0-.62-.17v-.39a1.47 1.47 0 0 0-.33-1 1.32 1.32 0 0 0-1.9 0 1.47 1.47 0 0 0-.33 1v.42a4.34 4.34 0 0 0-2.07 1.19 3.67 3.67 0 0 0-1.1 2.62 3.05 3.05 0 0 0 1.11 2.51 7.63 7.63 0 0 0 3.22 1.21 10.59 10.59 0 0 1 1.69.39 1.47 1.47 0 0 1 .63.44 1 1 0 0 1 .17.59 1.24 1.24 0 0 1-.56 1 2.73 2.73 0 0 1-1.81.52 3.13 3.13 0 0 1-1.8-.44 1.63 1.63 0 0 1-.55-.52 1.47 1.47 0 0 0-.36-1 1.31 1.31 0 0 0-1.88.05 1.52 1.52 0 0 0-.32 1v1.74a1.45 1.45 0 0 0 .35 1 1.3 1.3 0 0 0 1.66.18l.16-.13a5.84 5.84 0 0 0 1.46.49v1a1.49 1.49 0 0 0 .33 1 1.28 1.28 0 0 0 1.9 0 1.49 1.49 0 0 0 .33-1v-1a4.85 4.85 0 0 0 2.45-1.21 3.71 3.71 0 0 0 1.2-2.72 3.5 3.5 0 0 0-.56-1.94z" fill="#fff" fill-rule="evenodd" data-name="Составная фигура"/></svg>