<svg xmlns="http://www.w3.org/2000/svg" viewBox="0 0 660 369"><g data-name="Man #3"><path d="M538.28 188.01h-143.8a21.76 21.76 0 0 0-21.72 21.74v158.26h187.23v-158.3a21.76 21.76 0 0 0-21.71-21.7zm19 177.32h-181.8V209.71a19 19 0 0 1 19-19h143.8a19 19 0 0 1 19 19z" fill="#fff" fill-rule="evenodd" data-name="Составная фигура"/><path d="M410.67 168.66a15.3 15.3 0 0 0-15.53 15c-.09 4.42-3.64 108.23-121.36 108.23a15.27 15.27 0 0 0 0 30.53c77 0 114.38-37.74 132.17-69.4 19-33.79 19.69-67.44 19.71-68.86a15.24 15.24 0 0 0-14.99-15.5z" fill="#121214" fill-rule="evenodd" data-name="Составная фигура"/><path d="M410.7 167.41a16.54 16.54 0 0 0-16.81 16.19c-.09 4.37-3.62 107-120.11 107a16.52 16.52 0 0 0 0 33c77.62 0 115.31-38.08 133.26-70 19.12-34 19.85-68 19.87-69.46a16.53 16.53 0 0 0-16.21-16.73zm-5.84 85c-17.62 31.37-54.67 68.76-131.08 68.76a14 14 0 0 1 0-28c118.91 0 122.52-105 122.61-109.45a14 14 0 0 1 4.32-9.83 13.82 13.82 0 0 1 9.64-3.91h.3a14 14 0 0 1 13.76 14.19c-.02 1.34-.73 34.7-19.55 68.2z" fill="#fff" fill-rule="evenodd" data-name="Составная фигура"/><path d="M522.28 187.01c0-26.88-24.71-38.06-43.29-37.4h-53.84a29.68 29.68 0 0 0-29.68 29.69l-.48 162.71 120.11 17.82 7.36-167z" fill="#121214" fill-rule="evenodd" data-name="Составная фигура"/><path d="M523.53 187.01c0-10.43-3.74-19.55-10.8-26.37-9.91-9.63-23.94-12.63-33.74-12.31h-53.83a31 31 0 0 0-30.94 30.94l-.23 123.74s-.05 39 0 39h122l7.72-149.18zm-9.54 153h-117l-.27-160.74a28.47 28.47 0 0 1 28.44-28.44h53.83c9.32-.33 22.61 2.53 32 11.56 6.66 6.43 10 14.7 10 24.59l.18 5.84z" fill="#fff" fill-rule="evenodd" data-name="Составная фигура"/><path fill="#121214" fill-rule="evenodd" d="M429.37 151.18v86.11l43.45-83.07-43.45-3.04z" data-name="Составная фигура"/><path d="M430.44 132.01v29.85a2.61 2.61 0 0 0 2.61 2.61h21.94a20.7 20.7 0 0 0 20.64-19c0-.56.07-1.12.07-1.68v-18.62z" fill="#121214" fill-rule="evenodd" data-name="Составная фигура"/><path d="M429.19 131.01v30.92a3.86 3.86 0 0 0 3.86 3.86h21.94a22.06 22.06 0 0 0 21.89-20.18c0-.6.07-1.18.07-1.78v-20.12zm45.21 12.82c0 .53 0 1-.07 1.58a19.54 19.54 0 0 1-19.34 17.83h-21.94a1.36 1.36 0 0 1-1.36-1.36v-28.77l42.71-6.48z" fill="#5b141a" fill-rule="evenodd" data-name="Составная фигура"/><path d="M429.1 131.01v29.84a5 5 0 0 0 4.95 4.94h20.81a22.05 22.05 0 0 0 21.88-20.18c0-.6.08-1.18.08-1.78v-20.12zm45.22 12.82c0 .53 0 1-.07 1.58a19.54 19.54 0 0 1-19.39 17.88h-20.81a2.45 2.45 0 0 1-2.45-2.44v-27.74l42.72-6.48z" fill="#fff" fill-rule="evenodd" data-name="Составная фигура"/><path d="M466.31 46.69a10.75 10.75 0 0 1 .33 1.18l.49 2.25 6.39 29.55a6.14 6.14 0 0 0 11.47 1.46l10.13-8.5V46.69z" fill="#5b141a" fill-rule="evenodd" data-name="Составная фигура"/><path d="M464.58 45.44l.55 1.64c.11.34.21.71.29 1.06l6.88 31.79a7.3 7.3 0 0 0 6.28 5.77 6.46 6.46 0 0 0 1 .07 7.31 7.31 0 0 0 6.44-3.83l10.39-8.73V45.44zm29.3 26.57l-9.89 8.33-.12.23a4.88 4.88 0 0 1-9.14-1.17l-6.74-31.46h25.94z" fill="#5b141a" fill-rule="evenodd" data-name="Составная фигура"/><path d="M486.8 72.84c-2 1.83-5.08 2.44-6.62 4.73-1.13 1.67-1.09 4.2-2.37 5.68.9 4.54 4.87 8.72 7.1 12.3 20.58 5.64 24.66-23.54 1.89-22.71z" fill="#121214" fill-rule="evenodd"/><path d="M490.25 71.37a13.27 13.27 0 0 0-13.26 13.26 1.25 1.25 0 0 0 2.5 0 10.74 10.74 0 1 1 5.42 9.34 1.25 1.25 0 0 0-1.24 2.17 13.25 13.25 0 1 0 6.56-24.77z" fill="#fff" fill-rule="evenodd" data-name="Составная фигура"/><path d="M490.25 78.49a1.25 1.25 0 0 0 0 2.5 3.63 3.63 0 0 1 3.63 3.64 1.26 1.26 0 0 0 2.51 0 6.14 6.14 0 0 0-6.14-6.14z" fill="#fff" fill-rule="evenodd" data-name="Составная фигура"/><path d="M485.38 35.94a28.39 28.39 0 0 0-11.82-9.47c-5.37-2-13.22-1.41-20.34-1.41h-36.9c-1.85 1.13-5 .64-7.09 1.41a27.83 27.83 0 0 0-13.72 12.31c-4.33 8.38-2.36 25.34-2.36 37.37 0 9-1.59 22.44.47 30.28 6.05 23 19.71 32.7 49.19 32.64 6 0 11.56-.85 16.08-2.83 16.28-7.15 25.63-19.38 30.28-38.33V68.58c0-12.1 1.12-25.49-3.79-32.64z" fill="#121214" fill-rule="evenodd" data-name="new_vector_shape_done"/><path d="M490.54 57.51v-7.67a25.88 25.88 0 0 0-25.89-25.83H417.9a25.91 25.91 0 0 0-25.91 25.84v49.16a41.49 41.49 0 0 0 41.44 41.45h7.81a49.27 49.27 0 0 0 49.27-49.28V57.66c.04-.05.03-.1.03-.15zm-2.5 33.62a46.77 46.77 0 0 1-46.77 46.78h-7.81a39 39 0 0 1-38.94-39V49.85a23.41 23.41 0 0 1 23.38-23.39h46.75a23.39 23.39 0 0 1 23.39 23.38v41.29z" fill="#fff" fill-rule="evenodd" data-name="Составная фигура"/><path d="M419.72 102.47a6 6 0 0 1-6-6V80.19a1.26 1.26 0 1 0-2.51 0v16.28a8.51 8.51 0 0 0 8.51 8.5 1.25 1.25 0 0 0 0-2.5z" fill="#fff" fill-rule="evenodd" data-name="Составная фигура"/><path d="M452.99 1.25c-.1 0-.2 0 .29.06l-68.09-.06v18c0 17 9.67 30.83 26.71 30.83h9.55a54.85 54.85 0 0 0 29.42-8.55l.28-.18a10.2 10.2 0 0 1 15.45 6.49l.48 2.24 6.4 29.56a6.14 6.14 0 0 0 11.51 1.5l10.14-8.51V43.4a42.15 42.15 0 0 0-42.14-42.15z" fill="#121214" fill-rule="evenodd" data-name="Составная фигура"/><path d="M452.99.01h-69v19.28c.05 19.19 11.28 32.08 28 32.08h9.55a56 56 0 0 0 30.09-8.75l.28-.17a9 9 0 0 1 13.56 5.69l6.87 31.81a7.31 7.31 0 0 0 6.29 5.76 6.42 6.42 0 0 0 1 .07 7.29 7.29 0 0 0 6.44-3.83l10.4-8.73V43.4A43.45 43.45 0 0 0 452.99.01zm40.89 72l-9.89 8.3-.11.23a4.89 4.89 0 0 1-9.14-1.16l-6.4-29.56-.48-2.24a11.33 11.33 0 0 0-6.77-8.18 11.48 11.48 0 0 0-4.46-.91 11.31 11.31 0 0 0-6.11 1.81l-.28.17a53.53 53.53 0 0 1-28.75 8.36h-9.5c-17.54 0-25.42-14.86-25.46-29.59V2.47l66.84.06v-.06a40.94 40.94 0 0 1 40.6 40.9z" fill="#fff" fill-rule="evenodd" data-name="Составная фигура"/><path fill="#fff" d="M427.99 175h3v167.01h-3z" data-name="Составная фигура"/><path d="M485.85 150.9c-.31-.47-.63-.94-.94-1.42h-9.46c-.62.43-2.3 5.14-2.84 6.15-2.7 5.1-5.16 10.33-8 15.62-7.1 13-14.65 26.7-21.76 39.74-3.32 6.08-6.3 12.18-9.46 18-1.27 2.34-1.65 4.76-3.31 6.63v.94c5.24-1.76 9.9-6.86 14.19-9.93 5.45-3.91 11.05-7 16.55-10.88 4.05-2.84 7.93-6.45 12.3-9-.05-3.73-.94-15.75.48-18 2.25-1.72 8.22-3 11.35-3.31l1.42-24.6c-.03-3.64.85-8.12-.52-9.94z" fill="#121214" fill-rule="evenodd" data-name="new_vector_shape_done"/><path d="M486.14 149.91a4 4 0 0 0-3-1.35h-8.31l-47.13 92.71 46.29-33.71V189.7l11.61-3.36 1.66-33.22a4.37 4.37 0 0 0-1.12-3.21zm-2.83 34.51l-11.7 3.38v18.46l-37.16 27 41.81-82.25h6.85a1.75 1.75 0 0 1 1.29.58 1.87 1.87 0 0 1 .48 1.36z" fill="#fff" fill-rule="evenodd" data-name="Составная фигура"/><path fill="#121214" fill-rule="evenodd" d="M422.64 150.94l-8.3 27.63 4.79 7.36-3.45 15.94 13.69 34.25v-88.88l-6.73 3.7z" data-name="Составная фигура"/><path d="M421.59 150.09l-8.6 28.67 4.82 7.41-3.44 15.84 16.25 40.64v-97.53zm6.53 79.52l-11.13-27.86 3.48-16.07-4.76-7.31 8-26.58 4.43-2.44z" fill="#fff" fill-rule="evenodd" data-name="Составная фигура"/><path d="M474.75 140.01l-33.47 19.39.09 28 36.35-37v-7.39a3 3 0 0 0-2.97-3z" fill="#121214" fill-rule="evenodd" data-name="Составная фигура"/><path d="M474.77 139.01h-.34l-34.44 19.65.1 31.35 38.9-39v-7.85a4.21 4.21 0 0 0-4.22-4.15zm1.72 11l-33.9 34-.08-23.92 32.55-18.57a1.69 1.69 0 0 1 1.43 1.67z" fill="#fff" fill-rule="evenodd" data-name="Составная фигура"/><path d="M522.51 235.35v-40.09c-7.7.16-16.6 2.41-23.62 4.11-3.52.85-7.62-.21-10.27 1.54l-1 1c1.86 9.72.51 22.73.51 33.41 0 36.3 1.18 56.7-27.72 64.77l-20 .52h-64.23c-8 2.75-16.05 9.38-15.91 20.56 1.49 1.38 1.45 3.86 2.56 5.65a20.49 20.49 0 0 0 8.73 7.2c4.08 1.57 10.41 1 15.92 1h31.83c14.32 0 34.41 2.08 46.72-1 30.07-7.6 47.92-25.37 55.45-55.52 3.02-12.05 1.03-29.32 1.03-43.15z" fill="#121214" fill-rule="evenodd" data-name="new_vector_shape_done"/><path d="M522.25 193.89a1.36 1.36 0 0 0-1.36 1.36v71.06a67.14 67.14 0 0 1-67 67.11h-76.27a15.81 15.81 0 0 1-15.78-15.8c0-8.42 13.6-15.16 15.95-15.81h76.07a35.52 35.52 0 0 0 35.46-35.5v-65.45a1.36 1.36 0 0 0-2.72 0v65.45a32.79 32.79 0 0 1-32.74 32.78h-76.52a34.24 34.24 0 0 0-10 5.47c-5.38 4.1-8.23 8.6-8.23 13a18.53 18.53 0 0 0 18.5 18.52h76.24a69.87 69.87 0 0 0 69.75-69.83v-71a1.36 1.36 0 0 0-1.35-1.36z" fill="#fff" fill-rule="evenodd" data-name="Составная фигура"/><path d="M430.51 141.91c-6.47.67-5.21 4.93-6.62 10.88-.47 2-1.77 5.84-.95 9 .87 3.31 2.73 7.16 3.79 10.41.88 2.71.83 5.95 2.36 8l.48.48c2.2-11.31 1.02-26 .94-38.77z" fill="#121214" fill-rule="evenodd" data-name="new_vector_shape_done"/><path d="M430.64 140.87a7.66 7.66 0 0 0-7.56 6.61l-1.72 12.58 9.34 29.62 1.19-29.29v-19.52zm-1.86 34.41l-4.86-15.44 1.64-12a5.14 5.14 0 0 1 3.83-4.29v16.81z" fill="#fff" fill-rule="evenodd" data-name="Составная фигура"/><rect x="428.44" y="159.41" width="12.93" height="15.58" rx="2.55" ry="2.55" fill="#00ffc4" data-name="Составная фигура"/><path d="M439.31 158.01h-7.62a3.85 3.85 0 0 0-3.69 4v11a3.85 3.85 0 0 0 3.69 4h7.62a3.86 3.86 0 0 0 3.69-4v-11a3.86 3.86 0 0 0-3.69-4zm1.26 15a1.32 1.32 0 0 1-1.26 1.37h-7.62a1.31 1.31 0 0 1-1.26-1.37v-11a1.31 1.31 0 0 1 1.26-1.36h7.62a1.32 1.32 0 0 1 1.26 1.36z" fill="#121214" fill-rule="evenodd" data-name="Составная фигура"/><path fill="#00ffc4" fill-rule="evenodd" d="M440.45 175.08l-11.45-.07v61.01l13-23.4-1.55-37.54z" data-name="Составная фигура"/><path d="M443.22 174.09l-15.23-.08v69l17-28.72zm-12.49 59v-56.51l9.86.06 1.62 37z" fill="#121214" fill-rule="evenodd" data-name="Составная фигура"/><path d="M410.62 112.55v1.26a11.23 11.23 0 1 0 22.46 0v-1.26zm11.23 10a8.75 8.75 0 0 1-8.64-7.48h17.28a8.75 8.75 0 0 1-8.64 7.47z" fill="#fff" fill-rule="evenodd" data-name="Составная фигура"/></g><path d="M637.4 342.01H25.59c-12.48 0-22.6 11.63-22.6 26h657c0-14.37-10.11-26-22.59-26z" fill="#121214" fill-rule="evenodd" data-name="Составная фигура"/><path d="M636.29 340.01H23.7c-13.07 0-23.71 12.43-23.71 27.72v1.28h660v-1.27c0-15.3-10.63-27.73-23.7-27.73zM2.2 366.46c.57-13.3 10-23.91 21.5-23.91h612.59c11.51 0 20.94 10.61 21.5 23.91z" fill="#fff" fill-rule="evenodd" data-name="Составная фигура"/><path d="M416.04 329.46h-85.05v10.55h95.63a10.55 10.55 0 0 0-10.58-10.55z" fill="#121214" fill-rule="evenodd" data-name="Составная фигура"/><path d="M416.04 328.1h-86.45v13.28h98.4v-1.37a11.93 11.93 0 0 0-11.95-11.91zm-83.73 10.56v-7.84h83.73a9.2 9.2 0 0 1 9.08 7.84z" fill="#fff" fill-rule="evenodd" data-name="Составная фигура"/><path d="M315.64 212.82a16.6 16.6 0 0 0-16.29-13.46H125.62a16.61 16.61 0 0 0-16.29 19.77l23.18 120h207.53z" fill="#121214" fill-rule="evenodd" data-name="Составная фигура"/><path d="M316.99 212.56a18 18 0 0 0-17.64-14.55H125.62a18 18 0 0 0-17.63 21.38l23.4 121.09h210.29zm-206.32 6.31a15.26 15.26 0 0 1 15-18.15h173.68a15.26 15.26 0 0 1 15 12.36l24.04 124.68H133.63z" fill="#fff" fill-rule="evenodd" data-name="Составная фигура"/><path d="M337.99 327.91a5.61 5.61 0 1 0 5.6 5.61 5.6 5.6 0 0 0-5.6-5.61zm-30-115.09a16.6 16.6 0 0 0-16.29-13.46H117.99a16.61 16.61 0 0 0-16.29 19.77l23.18 120h207.48z" fill="#121214" fill-rule="evenodd" data-name="Составная фигура"/><path d="M212.43 257.01a16.26 16.26 0 1 0 16.24 16.25 16.25 16.25 0 0 0-16.24-16.25z" fill="#00ffc4" fill-rule="evenodd" data-name="Составная фигура"/><path d="M309.3 212.56a18 18 0 0 0-17.63-14.55H117.99a18 18 0 0 0-17.62 21.39l23.38 121.09h210.24zm-206.31 6.31a15.26 15.26 0 0 1 15-18.15h173.68a15.26 15.26 0 0 1 15 12.36l24.08 124.68H125.99z" fill="#fff" fill-rule="evenodd" data-name="Составная фигура"/><path d="M337.99 326.55a7 7 0 1 0 6.95 7 7 7 0 0 0-6.95-7zm0 11.22a4.25 4.25 0 1 1 4.24-4.25 4.26 4.26 0 0 1-4.24 4.25z" fill="#fff" fill-rule="evenodd" data-name="Составная фигура"/><g fill-rule="evenodd"><path d="M458.32 277.09h-42.49a3.73 3.73 0 0 0-3.72 3.73v5.1a3.73 3.73 0 0 0 3.72 3.73h42.49a3.73 3.73 0 0 0 3.72-3.73v-5.1a3.73 3.73 0 0 0-3.72-3.73zm1 8.83a1 1 0 0 1-1 1h-42.49a1 1 0 0 1-1-1v-5.1a1 1 0 0 1 1-1h42.49a1 1 0 0 1 1 1z" fill="#fff" data-name="Составная фигура"/><path d="M416.9 288.29l3.82 49.85a3 3 0 0 0 3 2.79h26.58a3 3 0 0 0 3-2.78l3.95-49.86z" fill="#121214" data-name="Составная фигура"/><path d="M450.59 270.53l-25.6-3.1a5.78 5.78 0 0 0-6.46 5.74v6.64h37.19v-3.54a5.77 5.77 0 0 0-5.13-5.74zm2.37 6.56h-31.77v-3.92a3.06 3.06 0 0 1 3.43-3l25.65 3.1a3.06 3.06 0 0 1 2.69 3zm-37.52 9.84l3.92 51.32a4.4 4.4 0 0 0 4.36 4h26.58a4.41 4.41 0 0 0 4.36-4l4.06-51.33zm36.55 51.08a1.67 1.67 0 0 1-1.65 1.53h-26.62a1.66 1.66 0 0 1-1.65-1.53l-3.7-48.39h37.41z" fill="#fff" data-name="Составная фигура"/></g><g fill-rule="evenodd"><path d="M225.99 42.01a45 45 0 1 0 45 45 45.06 45.06 0 0 0-45-45zm0 88.66a43.66 43.66 0 1 1 43.67-43.66 43.71 43.71 0 0 1-43.67 43.66zm0-82.44a38.78 38.78 0 1 0 38.79 38.78 38.83 38.83 0 0 0-38.79-38.78zm0 76.22a37.44 37.44 0 1 1 37.45-37.44 37.48 37.48 0 0 1-37.45 37.44z" fill="#fff" data-name="Составная фигура"/><path d="M239.79 55.22a1.28 1.28 0 1 0 .38.91 1.3 1.3 0 0 0-.38-.91zm18.2 17.85a1.3 1.3 0 0 0-1.82 0 1.32 1.32 0 0 0-.38.92 1.29 1.29 0 0 0 2.2.91 1.25 1.25 0 0 0 .38-.91 1.28 1.28 0 0 0-.38-.92zm.23 25.49a1.29 1.29 0 0 0-1.83 0 1.29 1.29 0 0 0-.37.91 1.33 1.33 0 0 0 .37.92 1.37 1.37 0 0 0 .92.37 1.28 1.28 0 0 0 1.29-1.29 1.3 1.3 0 0 0-.38-.91zm-17.86 18.19a1.29 1.29 0 0 0-1.83 0 1.28 1.28 0 0 0 0 1.82 1.29 1.29 0 0 0 1.83 0 1.28 1.28 0 0 0 0-1.82zm-25.5.26a1.27 1.27 0 0 0-.9-.38 1.3 1.3 0 0 0-1.3 1.29 1.28 1.28 0 0 0 .38.91 1.26 1.26 0 0 0 .92.38 1.23 1.23 0 0 0 .9-.38 1.25 1.25 0 0 0 .39-.91 1.26 1.26 0 0 0-.39-.91zm-18.19-17.89a1.27 1.27 0 0 0-.91-.37 1.29 1.29 0 0 0-.91.37 1.32 1.32 0 0 0-.38.92 1.3 1.3 0 0 0 1.29 1.29 1.28 1.28 0 0 0 .91-.38 1.25 1.25 0 0 0 .38-.91 1.28 1.28 0 0 0-.38-.92zm-.23-25.48a1.28 1.28 0 1 0 .38.91 1.3 1.3 0 0 0-.38-.91zm17.86-18.19a1.28 1.28 0 0 0-1.82 0 1.31 1.31 0 0 0-.38.91 1.29 1.29 0 1 0 2.58 0 1.31 1.31 0 0 0-.38-.91zm13.03-2.65a1.28 1.28 0 0 0-1.82 0 1.28 1.28 0 0 0 0 1.82 1.29 1.29 0 1 0 1.82-1.82zm23.55 9.75a1.3 1.3 0 0 0-1.82 0 1.3 1.3 0 0 0-.38.92 1.29 1.29 0 0 0 2.58 0 1.3 1.3 0 0 0-.38-.92zm9.76 23.55a1.29 1.29 0 0 0-1.83 0 1.28 1.28 0 0 0 0 1.82 1.29 1.29 0 0 0 1.83 0 1.28 1.28 0 0 0 0-1.82zm-9.76 23.55a1.28 1.28 0 1 0 .38.91 1.3 1.3 0 0 0-.38-.91zm-23.55 9.75a1.28 1.28 0 0 0-1.82 0 1.29 1.29 0 1 0 1.82 1.82 1.28 1.28 0 0 0 0-1.82zm-23.55-9.75a1.29 1.29 0 0 0-1.83 0 1.28 1.28 0 0 0 0 1.82 1.29 1.29 0 0 0 1.83 0 1.28 1.28 0 0 0 0-1.82zm-9.79-23.55a1.28 1.28 0 1 0 .38.91 1.3 1.3 0 0 0-.38-.91zm9.79-23.55a1.29 1.29 0 0 0-.91-.37 1.28 1.28 0 0 0-1.3 1.29 1.27 1.27 0 0 0 .38.9 1.29 1.29 0 0 0 .92.39 1.32 1.32 0 0 0 1.29-1.29 1.32 1.32 0 0 0-.38-.92z" fill="#fff" data-name="Составная фигура"/><path d="M226.33 86.62a1 1 0 0 0-1.29.61l-4.74 13.19a1.009 1.009 0 1 0 1.9.68l4.79-13.19a1 1 0 0 0-.66-1.29z" fill="#00ffc4" data-name="Составная фигура"/><path d="M226.38 86.64l-24.39-10.36a1.006 1.006 0 1 0-.79 1.85l24.42 10.37a1.09 1.09 0 0 0 .39.08 1 1 0 0 0 .39-1.94z" fill="#00ffc4" data-name="Составная фигура"/><path d="M225.99 83.69a3.88 3.88 0 1 0 3.89 3.88 3.88 3.88 0 0 0-3.89-3.88z" fill="#00ffc4" data-name="Составная фигура"/></g></svg>